<svg width="38" height="38" viewBox="0 0 38 38" fill="none" xmlns="http://www.w3.org/2000/svg">
<g id="Group 427322856">
<circle id="Ellipse 1298" cx="19" cy="19" r="19" fill="#0FC86C"/>
<g id="Group 35228">
<g id="Group 35227">
<g id="Group 35218">
<path id="Subtract" d="M21.1953 12.8398C22.8521 12.8399 24.1952 14.1831 24.1953 15.8398V21.877C24.1953 23.5338 22.8521 24.8769 21.1953 24.877H13.7949C12.1382 24.8768 10.795 23.5337 10.7949 21.877V15.8398C10.7951 14.1832 12.1383 12.84 13.7949 12.8398H21.1953ZM26.5322 14.583C27.1916 14.0898 28.1317 14.5605 28.1318 15.3838V22.751C28.1318 23.4846 27.3675 23.9687 26.7041 23.6553L25.1221 22.9082C24.7726 22.7429 24.5499 22.3905 24.5498 22.0039V16.5664C24.55 16.2514 24.698 15.9543 24.9502 15.7656L26.5322 14.583Z" fill="white"/>
</g>
</g>
</g>
</g>
</svg>
