<svg width="38" height="38" viewBox="0 0 38 38" fill="none" xmlns="http://www.w3.org/2000/svg">
<g id="&#229;&#155;&#190;&#230;&#160;&#135;/60/&#230;&#142;&#165;&#229;&#144;&#172;">
<circle id="Ellipse 1298" cx="19" cy="19" r="19" fill="#0FC86C"/>
<path id="Vector" d="M24.1613 28.3416C22.3895 28.5011 20.4564 27.8684 18.4164 26.4558C16.8461 25.3692 15.6683 24.1353 15.2249 23.6674C15.1706 23.6096 15.1233 23.5622 15.0987 23.5377C15.0742 23.5132 15.0234 23.4658 14.969 23.4115C14.5046 22.9681 13.2673 21.7904 12.1807 20.2201C10.7698 18.1818 10.1354 16.2469 10.2948 14.4751C10.4403 12.861 11.0414 11.8392 11.5532 11.4186C11.8459 11.1785 12.4365 10.8087 13.0394 10.5634C13.9735 10.183 14.7043 10.1883 15.2126 10.5774C15.2686 10.6194 15.3247 10.6685 15.3791 10.7229C15.9118 11.2556 16.3342 12.2704 16.499 12.712C16.7846 13.4709 17.0808 14.4962 16.867 15.0815C16.6515 15.6721 16.3395 15.9946 16.1099 16.2312C15.9294 16.4187 15.8611 16.4941 15.826 16.6343C15.826 16.6799 15.8575 17.1355 16.7899 18.4184C17.3858 19.2351 18.0623 19.9958 18.3497 20.2832C18.6372 20.5706 19.396 21.2454 20.2145 21.843C21.4956 22.7771 21.9513 22.8052 21.9986 22.8069C22.1388 22.7719 22.2124 22.7053 22.4017 22.523C22.6366 22.2952 22.959 21.9832 23.5514 21.7659C24.1368 21.5521 25.1638 21.8465 25.9209 22.134C26.3625 22.3022 27.379 22.7228 27.9101 23.2539C27.9644 23.3082 28.0135 23.3643 28.0555 23.4204C28.4446 23.9286 28.4499 24.6594 28.0696 25.5936C27.8225 26.1982 27.4527 26.7888 27.2143 27.0797C26.799 27.5967 25.7755 28.1961 24.1613 28.3416Z" fill="white"/>
</g>
</svg>
