<svg width="40" height="28" viewBox="0 0 40 28" fill="none" xmlns="http://www.w3.org/2000/svg">
<g id="&#229;&#183;&#178;&#232;&#174;&#162;&#233;&#152;&#133;">
<rect id="Rectangle 34625611" width="40" height="28" rx="14" fill="url(#paint0_linear_1502_7083)"/>
<g id="Group 427322253">
<g id="Frame">
<path id="Vector" d="M20.004 8.11949C20.154 7.94394 20.3118 7.77505 20.4762 7.61283C24.014 4.17283 29.1673 6.54616 29.1673 11.4562C29.1673 14.3562 27.4573 17.0084 24.6229 19.3673C23.2372 20.5117 21.7264 21.4957 20.1195 22.3006L20.0007 22.365C19.9273 22.3328 19.6829 22.2106 19.4973 22.1206C18.0318 21.4013 16.6513 20.5203 15.3818 19.4939C12.5451 17.1873 10.834 14.5006 10.834 11.4562C10.834 6.53172 16.0651 4.10283 19.5429 7.60283C19.6707 7.73061 19.8473 7.93061 20.004 8.11949Z" fill="url(#paint1_linear_1502_7083)"/>
<path id="Vector_2" d="M23.7077 11.2963C23.8948 11.4835 24 11.7374 24 12.0022C24 12.2669 23.8948 12.5209 23.7077 12.7081L19.7137 16.7021C19.5264 16.8893 19.2725 16.9944 19.0077 16.9944C18.743 16.9944 18.4891 16.8893 18.3018 16.7021L16.3048 14.7051C16.2095 14.613 16.1334 14.5028 16.0811 14.381C16.0287 14.2592 16.0012 14.1282 16 13.9956C15.9989 13.863 16.0241 13.7315 16.0744 13.6088C16.1246 13.4861 16.1987 13.3746 16.2925 13.2809C16.3862 13.1871 16.4977 13.113 16.6204 13.0628C16.7431 13.0126 16.8746 12.9873 17.0072 12.9884C17.1397 12.9896 17.2708 13.0171 17.3926 13.0695C17.5144 13.1218 17.6246 13.1979 17.7167 13.2932L19.0077 14.5843L22.2958 11.2963C22.483 11.1091 22.737 11.0039 23.0017 11.0039C23.2665 11.0039 23.5204 11.1091 23.7077 11.2963Z" fill="#ED7F02"/>
</g>
</g>
</g>
<defs>
<linearGradient id="paint0_linear_1502_7083" x1="20" y1="0" x2="20" y2="28" gradientUnits="userSpaceOnUse">
<stop stop-color="#F4B741"/>
<stop offset="1" stop-color="#F08F36"/>
</linearGradient>
<linearGradient id="paint1_linear_1502_7083" x1="20.0007" y1="5.95117" x2="20.0007" y2="22.365" gradientUnits="userSpaceOnUse">
<stop stop-color="#FFFFAA"/>
<stop offset="1" stop-color="#FEF13C"/>
</linearGradient>
</defs>
</svg>
