<svg width="56" height="56" viewBox="0 0 56 56" fill="none" xmlns="http://www.w3.org/2000/svg">
<g id="Group 35222">
<g id="Group 35212">
<path id="Rectangle 4055" d="M7.85303 13.9426C7.07773 13.1685 7.07459 11.9104 7.84602 11.1324L8.66695 10.3046C9.43838 9.52663 10.6923 9.5235 11.4676 10.2976L43.269 42.0489C44.0443 42.823 44.0475 44.0811 43.2761 44.8591L42.4551 45.6869C41.6837 46.4649 40.4298 46.468 39.6545 45.6939L7.85303 13.9426Z" fill="#C7C7CA"/>
<path id="Subtract" d="M7.79883 16.4385C7.74823 17.0047 7.93911 17.589 8.37109 18.0225L34.3896 44.1309H11.4326C8.9677 44.1309 6.96897 42.1328 6.96875 39.668V19.0303C6.96875 18.0637 7.27662 17.1693 7.79883 16.4385ZM35.418 14.5664C37.883 14.5664 39.8818 16.5652 39.8818 19.0303V39.668C39.8817 40.7931 39.4636 41.8195 38.7764 42.6045L11.3242 15.0586C11.1355 14.8692 10.9175 14.7268 10.6855 14.6299C10.9285 14.5889 11.178 14.5664 11.4326 14.5664H35.418ZM47.6465 17.333C48.4313 16.7459 49.5498 17.306 49.5498 18.2861V40.9072C49.5498 41.7805 48.6401 42.3564 47.8506 41.9834L41.4336 38.9521C41.0175 38.7555 40.752 38.3362 40.752 37.876V23.0859C40.752 22.7108 40.9291 22.3575 41.2295 22.1328L47.6465 17.333Z" fill="#C7C7CA"/>
</g>
</g>
</svg>
