<svg width="18" height="18" viewBox="0 0 18 18" fill="none" xmlns="http://www.w3.org/2000/svg">
<g id="Group 427322823">
<g id="Frame">
<path id="Vector" d="M9.08903 2.32805C12.7021 2.32805 15.6415 5.26754 15.6415 8.88059C15.6415 12.4936 12.7021 15.433 9.08903 15.433C5.47616 15.433 2.53703 12.4936 2.53703 8.88059C2.53694 5.26754 5.47616 2.32805 9.08903 2.32805ZM9.08903 1.24805C4.87388 1.24805 1.45703 4.66553 1.45703 8.88059C1.45703 13.0955 4.87388 16.513 9.08903 16.513C13.3046 16.513 16.7215 13.0955 16.7215 8.88059C16.7215 4.66553 13.3046 1.24805 9.08903 1.24805Z" fill="#666666"/>
<path id="Vector_2" d="M15.3863 12.9532L14.7358 13.8157L2.76758 4.78239L3.41765 3.91992L15.3863 12.9532Z" fill="#666666"/>
</g>
</g>
</svg>
