<svg width="54" height="54" viewBox="0 0 54 54" fill="none" xmlns="http://www.w3.org/2000/svg">
<g id="Group 427322784">
<rect id="Rectangle 34625522" width="54" height="54" rx="12" fill="#F3F2F2"/>
<g id="Group 427321719">
<g id="Group 427321715">
<g id="Frame">
<path id="Vector" d="M24.912 17.25H23.6721C21.9512 17.25 20.5505 17.25 19.4455 17.3979C18.2917 17.5539 17.3005 17.887 16.5107 18.6784C15.721 19.4681 15.3862 20.4594 15.2319 21.6115C15.084 22.7165 15.084 24.1172 15.084 25.8381V28.1619C15.084 29.8828 15.084 31.2819 15.2319 32.3869C15.3862 33.5406 15.721 34.5319 16.5107 35.3216C17.3021 36.1114 18.2934 36.4461 19.4455 36.6021C20.5489 36.75 21.948 36.75 23.6689 36.75H24.9152C26.6345 36.75 28.0352 36.75 29.1386 36.6021C30.2924 36.4461 31.2836 36.1114 32.0717 35.3216C32.8371 34.5579 33.1751 33.604 33.336 32.4974C33.8332 32.8874 34.2817 33.2172 34.6864 33.461C35.4452 33.9193 36.4072 34.3044 37.3936 33.8153C38.3654 33.3326 38.666 32.3462 38.7911 31.4606C38.9162 30.5717 38.9162 29.3757 38.9162 27.9376V26.0608C38.9162 24.6226 38.9162 23.4283 38.7911 22.5378C38.666 21.6521 38.3654 20.6658 37.3936 20.1831C36.4072 19.6956 35.4452 20.0791 34.6864 20.5374C34.2181 20.8316 33.7677 21.1534 33.3376 21.501C33.3427 21.5378 33.3475 21.5746 33.3522 21.6115C33.1962 20.4578 32.8631 19.4665 32.0717 18.6784C31.282 17.887 30.2907 17.5539 29.1386 17.3979C28.0336 17.25 26.6329 17.25 24.912 17.25ZM33.4871 23.7597L33.4936 24.1628C34.532 23.308 35.2486 22.7295 35.8076 22.3915C36.1001 22.2127 36.2789 22.1494 36.3764 22.1315C36.3903 22.1284 36.4044 22.1262 36.4186 22.125H36.4284C36.4313 22.1261 36.4341 22.1278 36.4365 22.1299C36.4535 22.1495 36.4677 22.1714 36.4787 22.1949C36.5307 22.2973 36.5941 22.489 36.6445 22.8416C36.7452 23.5599 36.7485 24.6031 36.7485 26.1518V27.8466C36.7485 29.3953 36.7452 30.4385 36.6445 31.1567C36.5957 31.5094 36.5307 31.7011 36.4787 31.8035C36.4677 31.827 36.4535 31.8489 36.4365 31.8685L36.4349 31.8701L36.43 31.8734H36.4284H36.4186C36.4039 31.8728 36.3892 31.8711 36.3747 31.8685C36.1724 31.8131 35.9803 31.7253 35.806 31.6085C35.247 31.2689 34.5304 30.6904 33.492 29.8356C33.4985 29.3156 33.4985 28.7599 33.4985 28.1651V25.8349C33.4985 25.0825 33.4985 24.3919 33.4855 23.7597H33.4871ZM24.834 22.6661C24.834 22.0681 25.3182 21.5839 25.9162 21.5839H28.084C28.2297 21.5782 28.3751 21.6021 28.5115 21.6539C28.6478 21.7058 28.7723 21.7847 28.8774 21.8858C28.9825 21.987 29.0661 22.1083 29.1233 22.2425C29.1804 22.3767 29.2098 22.5211 29.2098 22.6669C29.2098 22.8128 29.1804 22.9572 29.1233 23.0914C29.0661 23.2256 28.9825 23.3469 28.8774 23.448C28.7723 23.5492 28.6478 23.628 28.5115 23.6799C28.3751 23.7318 28.2297 23.7556 28.084 23.75H25.9162C25.6291 23.7496 25.3538 23.6352 25.1509 23.432C24.948 23.2287 24.834 22.9533 24.834 22.6661Z" fill="#333333"/>
</g>
</g>
</g>
</g>
</svg>
