<svg width="54" height="54" viewBox="0 0 54 54" fill="none" xmlns="http://www.w3.org/2000/svg">
<g id="Group 427322783">
<rect id="Rectangle 34625522" width="54" height="54" rx="12" fill="#F3F2F2"/>
<g id="Group 427322755">
<path id="Vector" d="M22.6681 17.5C23.0903 17.5 23.4792 17.7289 23.6842 18.0981L25.1057 20.6587C25.2918 20.994 25.3006 21.3995 25.129 21.7425L23.7596 24.4814C23.7596 24.4814 24.1565 26.5217 25.8173 28.1826C27.4782 29.8435 29.5118 30.2336 29.5118 30.2336L32.2503 28.8643C32.5935 28.6927 32.9993 28.7016 33.3347 28.888L35.9026 30.3157C36.2713 30.5208 36.5 30.9095 36.5 31.3314V34.2794C36.5 35.7807 35.1055 36.865 33.683 36.385C30.7615 35.3992 26.2265 33.5223 23.3521 30.6478C20.4777 27.7735 18.6008 23.2385 17.615 20.317C17.135 18.8945 18.2193 17.5 19.7206 17.5H22.6681Z" fill="#333333" stroke="#333333" stroke-width="2.2" stroke-linejoin="round"/>
</g>
</g>
</svg>
