<svg width="60" height="60" viewBox="0 0 60 60" fill="none" xmlns="http://www.w3.org/2000/svg">
<g id="&#229;&#155;&#190;&#230;&#160;&#135;/50/&#230;&#145;&#132;&#229;&#131;&#143;&#229;&#164;&#180;/&#229;&#133;&#179;&#233;&#151;&#173;">
<circle id="Ellipse 1310" cx="30" cy="30" r="30" fill="black" fill-opacity="0.15"/>
<g id="Group 35222">
<g id="Group 35212">
<path id="Rectangle 4055" d="M16.5155 20.4319C16.3112 20.2279 16.3103 19.8963 16.5137 19.6912C16.717 19.4862 17.0475 19.4853 17.2519 19.6894L38.7605 41.1641C38.9649 41.3681 38.9657 41.6998 38.7624 41.9048C38.5591 42.1099 38.2286 42.1107 38.0242 41.9067L16.5155 20.4319Z" fill="white" fill-opacity="0.65"/>
<path id="Subtract" d="M17.2217 23.3633C17.2784 23.4602 17.3468 23.5525 17.4297 23.6357L34.0264 40.2881C33.7506 40.3414 33.4661 40.3711 33.1748 40.3711H20.9434C18.4783 40.3711 16.4795 38.3723 16.4795 35.9072V25.8291C16.4795 24.9176 16.7526 24.0698 17.2217 23.3633ZM33.1748 21.3652C35.6397 21.3654 37.6377 23.3642 37.6377 25.8291V35.9072C37.6377 37.0705 37.1919 38.1293 36.4629 38.9238L19.3281 21.7305C19.3124 21.7147 19.2956 21.7004 19.2793 21.6855C19.7935 21.4788 20.3552 21.3652 20.9434 21.3652H33.1748ZM41.9492 23.6523C42.7341 23.0653 43.8525 23.6254 43.8525 24.6055V37.6279C43.8524 38.501 42.9438 39.0769 42.1543 38.7041L38.8789 37.1562C38.4628 36.9595 38.1973 36.5404 38.1973 36.0801V27.0547C38.1973 26.6796 38.3744 26.3262 38.6748 26.1016L41.9492 23.6523Z" fill="white" fill-opacity="0.65"/>
</g>
</g>
</g>
</svg>
