<svg width="60" height="60" viewBox="0 0 60 60" fill="none" xmlns="http://www.w3.org/2000/svg">
<g id="&#229;&#155;&#190;&#230;&#160;&#135;/50/&#230;&#145;&#132;&#229;&#131;&#143;&#229;&#164;&#180;/&#229;&#188;&#128;&#229;&#144;&#175;">
<circle id="Ellipse 1310" cx="30" cy="30" r="30" fill="black" fill-opacity="0.15"/>
<g id="Group 35228">
<g id="Group 35227">
<g id="Group 35218">
<path id="Subtract" d="M33.7393 20.2812C36.2041 20.2814 38.2021 22.2802 38.2021 24.7451V34.8232C38.2021 37.2882 36.2042 39.2869 33.7393 39.2871H21.5078C19.0428 39.2871 17.0439 37.2883 17.0439 34.8232V24.7451C17.0439 22.2801 19.0428 20.2812 21.5078 20.2812H33.7393ZM42.5137 22.5684C43.2985 21.9813 44.417 22.5414 44.417 23.5215V36.5439C44.4168 37.417 43.5082 37.993 42.7188 37.6201L39.4434 36.0723C39.0273 35.8755 38.7617 35.4564 38.7617 34.9961V25.9707C38.7618 25.5956 38.9389 25.2423 39.2393 25.0176L42.5137 22.5684Z" fill="white"/>
</g>
</g>
</g>
</g>
</svg>
