<svg width="20" height="20" viewBox="0 0 20 20" fill="none" xmlns="http://www.w3.org/2000/svg">
<g id="Group 427322833">
<path id="&#244;&#128;&#141;&#137;" d="M11.5205 3.4502C12.4674 3.4502 13.214 3.72196 13.7529 4.27148H13.752C14.2961 4.81561 14.5653 5.57527 14.5654 6.54395V7.52246L17.3857 5.06738L17.5049 4.97168C17.6241 4.88112 17.7463 4.80492 17.8721 4.74414L17.999 4.68652C18.1261 4.63709 18.253 4.6123 18.3789 4.6123C18.7296 4.61234 19.0153 4.73381 19.2305 4.97754C19.4447 5.22029 19.5498 5.53351 19.5498 5.91211V14.0879C19.5498 14.4665 19.4447 14.7797 19.2305 15.0225C19.0153 15.2662 18.7296 15.3877 18.3789 15.3877C18.2116 15.3877 18.0427 15.3455 17.873 15.2637H17.8721C17.7465 15.199 17.6241 15.1208 17.5049 15.0293L17.3857 14.9326L14.5654 12.4697V13.4473C14.5654 14.4212 14.2969 15.1869 13.7529 15.7363C13.214 16.2805 12.4673 16.5498 11.5205 16.5498H3.49512C2.54835 16.5498 1.79987 16.2803 1.25586 15.7363H1.25488C0.71614 15.1869 0.450195 14.4211 0.450195 13.4473V6.54395C0.450283 5.57487 0.727336 4.81456 1.28711 4.27051C1.85087 3.7224 2.58851 3.4502 3.49512 3.4502H11.5205ZM3.70996 4.73633C3.16695 4.73636 2.73762 4.86527 2.41699 5.11914L2.28613 5.23535C1.9561 5.55996 1.78613 6.05671 1.78613 6.73438V13.2656C1.78613 13.9433 1.9561 14.44 2.28613 14.7646C2.61714 15.0901 3.08939 15.2558 3.70996 15.2559H11.3057C11.9263 15.2558 12.3985 15.09 12.7295 14.7646C13.0595 14.44 13.2295 13.9433 13.2295 13.2656V6.73438C13.2295 6.14123 13.0994 5.68694 12.8457 5.36523L12.7295 5.23535C12.3984 4.90466 11.9262 4.73634 11.3057 4.73633H3.70996ZM18.1787 6.13574C18.1602 6.13582 18.1392 6.14181 18.1152 6.1582L18.1133 6.16016C18.0899 6.17462 18.0603 6.19287 18.0264 6.21777L18.0273 6.21875L14.5654 9.16016V10.8389L18.0254 13.7793C18.0577 13.7986 18.0862 13.8188 18.1113 13.8389C18.1352 13.8509 18.1575 13.8564 18.1787 13.8564C18.209 13.8564 18.2256 13.8468 18.2363 13.832C18.2492 13.8141 18.2597 13.7807 18.2598 13.7246V6.27539C18.2597 6.21641 18.2487 6.18058 18.2354 6.16113C18.2243 6.14533 18.208 6.13574 18.1787 6.13574Z" fill="#222222" stroke="#222222" stroke-width="0.1"/>
</g>
</svg>
