<svg width="20" height="20" viewBox="0 0 20 20" fill="none" xmlns="http://www.w3.org/2000/svg">
<g id="Group 427323160">
<g id="Frame">
<path id="Vector" d="M6.89852 1.66602C7.24835 1.66587 7.58937 1.77582 7.87324 1.98027C8.15712 2.18473 8.36946 2.47333 8.48018 2.80518L9.72852 6.55185C9.85502 6.93241 9.84006 7.34583 9.68638 7.71626C9.5327 8.08668 9.2506 8.38927 8.89185 8.56852L7.76268 9.13185L7.77602 9.15685C8.51045 10.4301 9.56728 11.4876 10.8402 12.2227L10.8652 12.236L11.4318 11.1068C11.5882 10.7941 11.8389 10.5384 12.1485 10.376L12.2835 10.3127C12.6542 10.159 13.0678 10.1442 13.4485 10.271L17.1927 11.5185C17.5246 11.6291 17.8132 11.8412 18.0178 12.1249C18.2224 12.4086 18.3326 12.7496 18.3327 13.0993V15.8327C18.3327 16.4957 18.0693 17.1316 17.6004 17.6004C17.1316 18.0693 16.4957 18.3327 15.8327 18.3327H14.9993C7.63602 18.3327 1.66602 12.3627 1.66602 4.99935V4.16602C1.66602 3.50297 1.92941 2.86709 2.39825 2.39825C2.86709 1.92941 3.50297 1.66602 4.16602 1.66602H6.89852ZM6.89852 3.33268H4.16602C3.945 3.33268 3.73304 3.42048 3.57676 3.57676C3.42048 3.73304 3.33268 3.945 3.33268 4.16602V4.99935C3.33268 11.4427 8.55602 16.666 14.9993 16.666H15.8327C16.0537 16.666 16.2657 16.5782 16.4219 16.4219C16.5782 16.2657 16.666 16.0537 16.666 15.8327V13.1002L12.9227 11.8518L11.981 13.7335C11.8845 13.9261 11.7172 14.0739 11.5142 14.1459C11.3111 14.2178 11.0881 14.2083 10.8918 14.1193C8.66672 13.1137 6.88459 11.3313 5.87935 9.10602C5.79021 8.90961 5.7807 8.68629 5.85281 8.48302C5.92492 8.27974 6.07303 8.11234 6.26602 8.01602L8.14685 7.07602L6.89852 3.33268Z" fill="#222222"/>
</g>
</g>
</svg>
