<svg width="24" height="24" viewBox="0 0 24 24" fill="none" xmlns="http://www.w3.org/2000/svg">
<g id="Group 427322751">
<circle id="Ellipse 3600" cx="12" cy="12" r="12" fill="black" fill-opacity="0.15"/>
<g id="Group 427322746">
<g id="Group 427322742">
<path id="Vector" d="M12.4882 11.5498C12.3824 11.444 12.3213 11.3016 12.3175 11.1519C12.3138 11.0023 12.3677 10.857 12.4681 10.746L12.4882 10.725L14.7361 8.47698L12.8861 8.47698C12.7364 8.47698 12.5925 8.41946 12.484 8.31632C12.3756 8.21317 12.3109 8.07229 12.3035 7.92282L12.3027 7.89365C12.3027 7.74399 12.3603 7.60005 12.4634 7.49162C12.5665 7.38318 12.7074 7.31853 12.8569 7.31105L12.8861 7.31032L16.0944 7.31032C16.2441 7.31032 16.388 7.36784 16.4964 7.47099C16.6049 7.57413 16.6695 7.71501 16.677 7.86448L16.6777 7.89365L16.6777 11.102C16.6777 11.2542 16.6183 11.4003 16.512 11.5093C16.4058 11.6182 16.2611 11.6813 16.109 11.6851C15.9569 11.6889 15.8092 11.6331 15.6977 11.5296C15.5861 11.4261 15.5194 11.2831 15.5118 11.1312L15.5111 11.102L15.5111 9.35198L13.3132 11.5498C13.259 11.604 13.1947 11.647 13.124 11.6763C13.0532 11.7056 12.9773 11.7207 12.9007 11.7207C12.8241 11.7207 12.7483 11.7056 12.6775 11.6763C12.6067 11.647 12.5424 11.604 12.4882 11.5498Z" fill="white"/>
<path id="Vector_2" d="M7.92904 16.6797C7.77938 16.6797 7.63544 16.6222 7.527 16.519C7.41856 16.4159 7.35391 16.275 7.34643 16.1255L7.3457 16.0964L7.3457 12.888C7.3457 12.7358 7.40517 12.5897 7.51143 12.4807C7.61768 12.3718 7.76231 12.3087 7.91445 12.3049C8.06659 12.3011 8.21419 12.3569 8.32576 12.4604C8.43733 12.5639 8.50403 12.7069 8.51164 12.8589L8.51237 12.888L8.51237 14.6382L10.7102 12.4402C10.8178 12.3323 10.9633 12.2708 11.1156 12.2688C11.2679 12.2668 11.4149 12.3244 11.5253 12.4294C11.6357 12.5344 11.7006 12.6784 11.7062 12.8306C11.7118 12.9828 11.6577 13.1312 11.5553 13.244L11.5352 13.2651L9.28733 15.513L11.1374 15.513C11.287 15.513 11.431 15.5705 11.5394 15.6737C11.6478 15.7768 11.7125 15.9177 11.72 16.0672L11.7207 16.0964C11.7207 16.246 11.6632 16.39 11.56 16.4984C11.4569 16.6068 11.316 16.6715 11.1665 16.679L11.1374 16.6797L7.92904 16.6797Z" fill="white"/>
</g>
</g>
</g>
</svg>
