<svg width="51" height="51" viewBox="0 0 51 51" fill="none" xmlns="http://www.w3.org/2000/svg">
<g id="&#229;&#155;&#190;&#230;&#160;&#135;/60/&#230;&#140;&#130;&#230;&#150;&#173;">
<circle id="Ellipse 1297" cx="25.5" cy="25.5" r="25.5" fill="#F44649"/>
<path id="Vector" d="M38.6616 23.335C37.1314 21.5022 34.6965 20.2681 31.4199 19.6727C28.8985 19.2136 26.6099 19.2668 25.745 19.2901C25.6385 19.2935 25.5487 19.2935 25.5021 19.2935C25.4556 19.2935 25.3624 19.2901 25.2593 19.2901C24.3978 19.2702 22.1058 19.2136 19.5844 19.6727C16.3112 20.2681 13.8729 21.5022 12.3427 23.335C10.9489 25.0049 10.5497 26.545 10.6362 27.4299C10.6861 27.9355 10.8957 28.8469 11.235 29.6519C11.7606 30.8993 12.4591 31.5879 13.3107 31.701C13.4038 31.7143 13.5036 31.7209 13.6067 31.7209C14.618 31.7209 15.9818 31.1588 16.5573 30.896C17.5486 30.4469 18.8027 29.755 19.1553 28.9966C19.5112 28.2315 19.5212 27.6294 19.5278 27.187C19.5345 26.8378 19.5411 26.7014 19.6409 26.5351C19.6842 26.4918 20.1466 26.0893 22.2489 25.7567C23.5894 25.5471 24.9533 25.4673 25.4988 25.4673C26.0444 25.4673 27.4049 25.5471 28.7488 25.7567C30.8511 26.086 31.3101 26.4918 31.3567 26.5351C31.4565 26.7014 31.4632 26.8344 31.4698 27.187C31.4765 27.6261 31.4864 28.2282 31.8424 28.9966C32.195 29.755 33.4491 30.4502 34.4403 30.896C35.0191 31.1554 36.383 31.7209 37.3909 31.7209C37.494 31.7209 37.5938 31.7143 37.687 31.701C38.5385 31.5879 39.2371 30.8993 39.7627 29.6519C40.102 28.8436 40.3115 27.9321 40.3614 27.4299C40.4579 26.545 40.0554 25.0049 38.6616 23.335Z" fill="white"/>
</g>
</svg>
