<svg width="34" height="13" viewBox="0 0 34 13" fill="none" xmlns="http://www.w3.org/2000/svg">
<path id="Vector 1375" d="M0 6.07143H3.53034C3.72475 6.07143 3.90153 5.95874 3.9836 5.78251L4.8075 4.0133C4.99946 3.6011 5.59738 3.63833 5.73671 4.07117L7.07913 8.2414C7.22028 8.67988 7.829 8.7104 8.01331 8.28824L8.85018 6.37137C8.92972 6.18919 9.10963 6.07143 9.30841 6.07143H13.3388C13.5473 6.07143 13.734 6.20087 13.8071 6.39619L14.3797 7.92633C14.5539 8.39197 15.2272 8.34554 15.3359 7.86039L16.7461 1.56511C16.8667 1.02664 17.6425 1.0518 17.728 1.59695L19.2286 11.1661C19.3154 11.7199 20.1079 11.7334 20.2136 11.1829L21.4504 4.73809C21.5474 4.23235 22.2533 4.18586 22.4158 4.67451L22.7667 5.72924C22.8346 5.93357 23.0258 6.07143 23.2411 6.07143H34" stroke="url(#paint0_linear_1084_7742)" stroke-width="1.3"/>
<defs>
<linearGradient id="paint0_linear_1084_7742" x1="34" y1="7" x2="-8.06593e-08" y2="7" gradientUnits="userSpaceOnUse">
<stop stop-color="#FF6BB1"/>
<stop offset="1" stop-color="#FF6BB1" stop-opacity="0"/>
</linearGradient>
</defs>
</svg>
