<svg width="20" height="20" viewBox="0 0 20 20" fill="none" xmlns="http://www.w3.org/2000/svg">
<g id="&#231;&#148;&#183;">
<rect id="Rectangle 34625035" width="20" height="20" rx="10" fill="#E2F2FF"/>
<g id="Group 427322981">
<g id="Group 427322980">
<g id="Frame">
<path id="Vector" d="M15.3125 4.09961C15.4633 4.09961 15.6082 4.15896 15.7148 4.26562C15.8215 4.37229 15.8809 4.51713 15.8809 4.66797V7.48047C15.8809 7.63131 15.8215 7.77615 15.7148 7.88281C15.6082 7.98947 15.4633 8.04883 15.3125 8.04883C15.1617 8.04883 15.0168 7.98947 14.9102 7.88281C14.8035 7.77615 14.7441 7.63131 14.7441 7.48047V6.00781L13.4268 7.32422C14.2054 8.26453 14.6326 9.44716 14.6309 10.6699C14.6309 13.5728 12.2779 15.9268 9.375 15.9268C6.47212 15.9268 4.11914 13.5728 4.11914 10.6699C4.11927 7.76715 6.47219 5.41406 9.375 5.41406C10.5497 5.41235 11.6893 5.80645 12.6123 6.53027L13.9072 5.23633H12.5C12.3492 5.23633 12.2043 5.17697 12.0977 5.07031C11.991 4.96365 11.9316 4.81881 11.9316 4.66797C11.9316 4.51713 11.991 4.37229 12.0977 4.26562C12.2043 4.15896 12.3492 4.09961 12.5 4.09961H15.3125ZM9.375 6.55176C7.10031 6.55176 5.25599 8.39526 5.25586 10.6699C5.25586 12.9447 7.10023 14.7891 9.375 14.7891C11.6498 14.7891 13.4941 12.9447 13.4941 10.6699C13.494 8.39526 11.6497 6.55176 9.375 6.55176Z" fill="#0B86E7" stroke="#0B86E7" stroke-width="0.2"/>
</g>
</g>
</g>
</g>
</svg>
