<svg width="60" height="60" viewBox="0 0 60 60" fill="none" xmlns="http://www.w3.org/2000/svg">
<g id="&#229;&#155;&#190;&#230;&#160;&#135;/60/&#233;&#186;&#166;&#229;&#133;&#139;&#233;&#163;&#142;/&#229;&#188;&#128;&#229;&#144;&#175;">
<circle id="Ellipse 1296" cx="30" cy="30" r="30" fill="black" fill-opacity="0.15"/>
<path id="Union" d="M40.1084 26.8125C40.8366 26.8125 41.4277 27.4026 41.4277 28.1309C41.4277 29.6817 41.1343 31.2186 40.5645 32.6543C40.0657 33.9107 39.3634 35.0701 38.4863 36.0801L38.0996 36.5029C37.0411 37.6075 35.7811 38.4869 34.3906 39.0879C33 39.6889 31.5077 40 29.999 40C28.6788 40 27.3708 39.7619 26.1328 39.2998L25.6064 39.0879C24.2161 38.4869 22.9569 37.6074 21.8984 36.5029C20.84 35.3985 20.0026 34.0901 19.4326 32.6543C18.8628 31.2187 18.5703 29.6817 18.5703 28.1309C18.5704 27.4027 19.1606 26.8127 19.8887 26.8125C20.6169 26.8125 21.2079 27.4026 21.208 28.1309C21.208 29.3506 21.4376 30.5575 21.8838 31.6816C22.33 32.8057 22.9826 33.8239 23.8018 34.6787C24.6208 35.5334 25.5907 36.2077 26.6533 36.667C27.7158 37.1262 28.8525 37.3623 29.999 37.3623C31.1455 37.3623 32.2823 37.1262 33.3447 36.667C34.4072 36.2077 35.3764 35.5332 36.1953 34.6787C37.0145 33.8239 37.6671 32.8057 38.1133 31.6816C38.5595 30.5575 38.79 29.3507 38.79 28.1309C38.7901 27.4027 39.3803 26.8127 40.1084 26.8125ZM30.1064 16.7031C33.4444 16.7031 36.1504 19.4091 36.1504 22.7471V28.6816C36.1504 32.0196 33.4444 34.7256 30.1064 34.7256C26.7687 34.7253 24.0625 32.0195 24.0625 28.6816V22.7471C24.0625 19.4092 26.7687 16.7034 30.1064 16.7031Z" fill="white"/>
<rect id="Rectangle 3947" x="29" y="38" width="2" height="6" rx="1" fill="white"/>
</g>
</svg>
