<svg width="60" height="60" viewBox="0 0 60 60" fill="none" xmlns="http://www.w3.org/2000/svg">
<g id="&#229;&#155;&#190;&#230;&#160;&#135;/60/&#233;&#186;&#166;&#229;&#133;&#139;&#233;&#163;&#142;/&#229;&#133;&#179;&#233;&#151;&#173;">
<circle id="Ellipse 1296" cx="30" cy="30" r="30" fill="black" fill-opacity="0.15"/>
<g id="Group 35220">
<g id="Group 35097">
<g id="Group 35089">
<path id="Subtract" d="M20.1943 26.7197C20.8687 26.7197 21.416 27.267 21.416 27.9414C21.4161 29.0707 21.6289 30.1878 22.042 31.2285C22.4551 32.2693 23.0599 33.2124 23.8184 34.0039C24.5766 34.7951 25.4743 35.4195 26.458 35.8447C27.4418 36.2699 28.4941 36.4883 29.5557 36.4883C30.4929 36.4883 31.4226 36.3169 32.3047 35.9844L34.1562 37.8359C33.9804 37.9241 33.8028 38.0088 33.6221 38.0869C32.7118 38.4803 31.7539 38.7356 30.7773 38.8535V40.7617C30.7773 41.4361 30.23 41.9834 29.5557 41.9834C28.8815 41.9832 28.335 41.4359 28.335 40.7617V38.8535C27.3581 38.7357 26.3998 38.4805 25.4893 38.0869C24.2018 37.5304 23.0348 36.7161 22.0547 35.6934C21.0747 34.6707 20.3002 33.4593 19.7725 32.1299C19.2448 30.8006 18.9737 29.3774 18.9736 27.9414C18.9736 27.2671 19.5201 26.7199 20.1943 26.7197ZM38.917 26.7197C39.5912 26.7199 40.1377 27.2672 40.1377 27.9414C40.1376 29.3774 39.8665 30.8006 39.3389 32.1299C38.8111 33.4593 38.0366 34.6707 37.0566 35.6934C36.8314 35.9284 36.5948 36.1508 36.3506 36.3633L34.6182 34.6309C34.8529 34.435 35.0792 34.227 35.293 34.0039C36.0515 33.2124 36.6562 32.2693 37.0693 31.2285C37.4824 30.1878 37.6953 29.0707 37.6953 27.9414C37.6953 27.267 38.2427 26.7197 38.917 26.7197ZM30.3262 34.0059C30.1065 34.0321 29.883 34.0469 29.6562 34.0469C26.5657 34.0467 24.0596 31.5408 24.0596 28.4502V27.7393L30.3262 34.0059ZM29.6562 17.3594C32.4349 17.3596 34.7387 19.3852 35.1758 22.04H33.2197C32.7703 22.0402 32.4053 22.405 32.4053 22.8545C32.4055 23.3038 32.7704 23.6678 33.2197 23.668H35.252V25.0938H33.2168C32.7675 25.0941 32.4033 25.4588 32.4033 25.9082C32.4035 26.3575 32.7676 26.7214 33.2168 26.7217H35.252V28.1445H33.2168C32.7676 28.1448 32.4035 28.5088 32.4033 28.958C32.4033 29.4074 32.7675 29.7722 33.2168 29.7725H35.0938C34.778 31.076 34.0056 32.2004 32.9561 32.9688L24.0596 24.0723V22.9561C24.0596 19.8654 26.5657 17.3596 29.6562 17.3594Z" fill="white" fill-opacity="0.65"/>
<rect id="Rectangle 3966" x="19.5459" y="21.3047" width="1.24158" height="27.6543" rx="0.62079" transform="rotate(-45 19.5459 21.3047)" fill="white" fill-opacity="0.65"/>
</g>
</g>
</g>
</g>
</svg>
