<svg width="51" height="51" viewBox="0 0 51 51" fill="none" xmlns="http://www.w3.org/2000/svg">
<g id="Group 427322720">
<rect id="Rectangle 34625716" width="51" height="51" rx="25.5" fill="black" fill-opacity="0.15"/>
<g id="Vector">
<path d="M31.1111 25.5C31.1111 24.1193 32.2055 23 33.5556 23C34.9056 23 36 24.1193 36 25.5C36 26.8807 34.9056 28 33.5556 28C32.2055 28 31.1111 26.8807 31.1111 25.5Z" fill="white"/>
<path d="M22.5556 25.5C22.5556 24.1193 23.65 23 25 23C26.35 23 27.4444 24.1193 27.4444 25.5C27.4444 26.8807 26.35 28 25 28C23.65 28 22.5556 26.8807 22.5556 25.5Z" fill="white"/>
<path d="M14 25.5C14 24.1193 15.0944 23 16.4444 23C17.7945 23 18.8889 24.1193 18.8889 25.5C18.8889 26.8807 17.7945 28 16.4444 28C15.0944 28 14 26.8807 14 25.5Z" fill="white"/>
</g>
</g>
</svg>
