<svg width="148" height="147" viewBox="0 0 148 147" fill="none" xmlns="http://www.w3.org/2000/svg">
<g id="Frame 427319916">
<g id="Group 427320742">
<g id="Group 427320741">
<path id="Vector 1366" d="M25.5 80C11.5 80 2.66667 96 0 104C0 113 41 119 74 119C107 119 147 111 147 100C147 96 129 84.5 118.5 84.5C108 84.5 96.5 88 83.5 88C70.5 88 43 80 25.5 80Z" fill="url(#paint0_linear_340_11923)"/>
<g id="Group 427320739">
<path id="Vector 1367" d="M20 62.5C19.2 60.9 19 58.5 17.5 58.5C16 58.5 16 60.5 15 62.5C14 64.5 15 67.5 15 68.5C15 69.5 11.5 71.5 11.5 74.5C11.5 77.5 16 79.5 17.5 79.5C19 79.5 22 79.5 23 77C24 74.5 21.5 73 21.5 72C21.5 71 21 64.5 20 62.5Z" fill="#EBEFF0"/>
<path id="Vector 1368" d="M18.5 68C18.8333 70.8333 19.1 76.9 17.5 78.5C17.5 80.1 17.5 81.8333 17.5 82.5" stroke="#D6D8DA" stroke-width="0.5" stroke-linecap="round"/>
<path id="Vector 1369" d="M15.5003 71C15.167 72 14.7003 74.4 15.5003 76C16.3003 77.6 17.1668 78 17.5 78.5" stroke="#D6D8DA" stroke-width="0.5" stroke-linecap="round"/>
</g>
<g id="Group 427320740">
<path id="Vector 1367_2" d="M134 71C133.2 69.4 133 67 131.5 67C130 67 130 69 129 71C128 73 129 76 129 77C129 78 125.5 80 125.5 83C125.5 86 130 88 131.5 88C133 88 136 88 137 85.5C138 83 135.5 81.5 135.5 80.5C135.5 79.5 135 73 134 71Z" fill="#EBEFF0"/>
<path id="Vector 1368_2" d="M132.5 76.5C132.833 79.3333 133.1 85.4 131.5 87C131.5 88.6 131.5 90.3333 131.5 91" stroke="#D6D8DA" stroke-width="0.5" stroke-linecap="round"/>
<path id="Vector 1369_2" d="M129.5 79.5C129.167 80.5 128.7 82.9 129.5 84.5C130.3 86.1 131.167 86.5 131.5 87" stroke="#D6D8DA" stroke-width="0.5" stroke-linecap="round"/>
</g>
<circle id="Ellipse 3543" cx="6" cy="75.5" r="2.5" fill="#EBEFF0"/>
<circle id="Ellipse 3544" cx="20" cy="39.5" r="3.5" fill="#EBEFF0"/>
<circle id="Ellipse 3545" cx="126" cy="50.5" r="4.5" fill="#EBEFF0"/>
<ellipse id="Ellipse 3546" cx="74.5" cy="116" rx="29" ry="5" fill="#ECEDEF"/>
</g>
</g>
<g id="Group 427320743">
<path id="Rectangle 34625200" d="M37 91H110L94 57H53L37 91Z" fill="#FAFAFA"/>
<rect id="Rectangle 34625199" x="53" y="42" width="41" height="15" fill="#E7E9EB"/>
<path id="Rectangle 34625200_2" d="M112 66L93.5 42V57L103 76.5L112 66Z" fill="#D9DADC"/>
<path id="Rectangle 34625201" d="M35 66L53 42V57L43.5 76.5L35 66Z" fill="#DBDDDF"/>
<path id="Subtract" fill-rule="evenodd" clip-rule="evenodd" d="M53 69C53 67.3431 51.6569 66 50 66H35V96C35 97.6569 36.3431 99 38 99H109C110.657 99 112 97.6569 112 96V66H97C95.3431 66 94 67.3431 94 69V73C94 74.6569 92.6569 76 91 76H56C54.3431 76 53 74.6569 53 73V69ZM56 86C56 84.8954 56.8954 84 58 84H89C90.1046 84 91 84.8954 91 86C91 87.1046 90.1046 88 89 88H58C56.8954 88 56 87.1046 56 86Z" fill="url(#paint1_linear_340_11923)"/>
</g>
<g id="Vector">
<path d="M95.5 26.5C95.3333 30.1667 94.9 37.6 94.5 38L91 29.5L95.5 26.5Z" fill="#ECEEF0"/>
<path d="M106 30L96 39.5L100.5 25.5L106 30Z" fill="#ECEEF0"/>
<path d="M106 38.5L97.5 41L106.5 34.5L106 38.5Z" fill="#ECEEF0"/>
</g>
</g>
<defs>
<linearGradient id="paint0_linear_340_11923" x1="73.5" y1="80" x2="73.5" y2="119" gradientUnits="userSpaceOnUse">
<stop stop-color="#E7E7E9"/>
<stop offset="1" stop-color="#E7E7E9" stop-opacity="0"/>
</linearGradient>
<linearGradient id="paint1_linear_340_11923" x1="73.5" y1="66" x2="73.5" y2="99" gradientUnits="userSpaceOnUse">
<stop stop-color="#EDEFF1"/>
<stop offset="1" stop-color="#D5D6D8"/>
</linearGradient>
</defs>
</svg>
