<svg width="26" height="26" viewBox="0 0 26 26" fill="none" xmlns="http://www.w3.org/2000/svg">
<path id="Vector" d="M13 0C20.1796 0 26 5.82039 26 13C26 20.1796 20.1796 26 13 26C5.82039 26 0 20.1796 0 13C0 5.82039 5.82039 0 13 0ZM10.8333 9.02778C10.8333 8.42947 10.3483 7.94444 9.75 7.94444V7.94444C9.15169 7.94444 8.66667 8.42947 8.66667 9.02778V16.9722C8.66667 17.5705 9.15169 18.0556 9.75 18.0556V18.0556C10.3483 18.0556 10.8333 17.5705 10.8333 16.9722V9.02778ZM17.3333 9.02778C17.3333 8.42947 16.8483 7.94444 16.25 7.94444V7.94444C15.6517 7.94444 15.1667 8.42947 15.1667 9.02778V16.9722C15.1667 17.5705 15.6517 18.0556 16.25 18.0556V18.0556C16.8483 18.0556 17.3333 17.5705 17.3333 16.9722V9.02778Z" fill="#4C72F6"/>
</svg>
