<svg width="26" height="26" viewBox="0 0 26 26" fill="none" xmlns="http://www.w3.org/2000/svg">
<g id="Group 427322663">
<path id="Vector" d="M19.1111 2C20.4077 2 21.6512 2.51508 22.5681 3.43192C23.4849 4.34877 24 5.59227 24 6.88889V19.1111C24 20.4077 23.4849 21.6512 22.5681 22.5681C21.6512 23.4849 20.4077 24 19.1111 24H6.88889C5.59228 24 4.34877 23.4849 3.43192 22.5681C2.51508 21.6512 2 20.4077 2 19.1111V6.88889C2 5.59227 2.51508 4.34877 3.43192 3.43192C4.34877 2.51508 5.59228 2 6.88889 2H19.1111ZM8.11111 5.66667C7.4628 5.66667 6.84105 5.92421 6.38263 6.38263C5.9242 6.84105 5.66667 7.4628 5.66667 8.11111C5.66667 8.75942 5.9242 9.38117 6.38263 9.83959C6.84105 10.298 7.4628 10.5556 8.11111 10.5556C8.75942 10.5556 9.38117 10.298 9.83959 9.83959C10.298 9.38117 10.5556 8.75942 10.5556 8.11111C10.5556 7.4628 10.298 6.84105 9.83959 6.38263C9.38117 5.92421 8.75942 5.66667 8.11111 5.66667ZM17.2778 11.7778C16.5664 11.779 15.486 12.8863 14.4532 14.7967C14.0426 15.5508 13.6747 16.3831 13.3447 17.202C13.1467 17.6909 12.9939 18.0649 12.9254 18.2702C12.5906 19.2688 11.2376 19.4106 10.7096 18.5C10.657 18.4096 10.5604 18.236 10.404 18.0038C10.14 17.6127 9.83811 17.2167 9.524 16.8573C8.73933 15.9578 7.98156 15.4444 7.50122 15.4444C7.01233 15.4567 6.26067 15.97 5.47722 16.8573C5.15944 17.2179 4.86611 17.6127 4.59722 18.0038C4.51289 18.126 4.50067 18.1834 4.44444 18.2702V19.1111C4.44444 19.4321 4.50767 19.75 4.63052 20.0466C4.75336 20.3431 4.93342 20.6126 5.16041 20.8396C5.38739 21.0666 5.65687 21.2466 5.95344 21.3695C6.25001 21.4923 6.56788 21.5556 6.88889 21.5556H19.1111C19.4321 21.5556 19.75 21.4923 20.0466 21.3695C20.3431 21.2466 20.6126 21.0666 20.8396 20.8396C21.0666 20.6126 21.2466 20.3431 21.3695 20.0466C21.4923 19.75 21.5556 19.4321 21.5556 19.1111V18.0796C21.4786 17.862 21.3759 17.6041 21.2133 17.202C20.8784 16.3831 20.5167 15.552 20.1036 14.7954C19.061 12.8827 17.9891 11.7766 17.2778 11.7778Z" fill="#666666"/>
<path id="Vector_2" d="M19 11.5C22.5884 11.5 25.5 14.4116 25.5 18C25.5 21.5884 22.5884 24.5 19 24.5C15.4116 24.5 12.5 21.5884 12.5 18C12.5 14.4116 15.4116 11.5 19 11.5ZM18.4375 15.6328C18.1949 15.6884 18.0323 15.7783 17.8955 15.9014L17.8867 15.9092L17.8779 15.916C17.7136 16.0505 17.5996 16.3061 17.5996 16.5615C17.5997 16.9436 17.6742 17.1901 17.7861 17.3252C17.8067 17.343 17.8595 17.3828 17.9619 17.4365C18.0691 17.4927 18.202 17.5516 18.3486 17.6084C18.4958 17.6654 18.649 17.7176 18.791 17.7617L19.1689 17.8662L19.1758 17.8682C19.4453 17.9356 19.7286 18.0582 19.9561 18.2461C20.1853 18.4355 20.3955 18.7272 20.3955 19.1133C20.3955 19.5335 20.1963 19.8486 19.9121 20.0381C19.7328 20.1576 19.5319 20.2169 19.3457 20.2441L19.376 20.2432C19.6987 20.223 19.987 20.1023 20.2471 19.9072L20.2568 19.9004L20.3496 19.8271C20.4327 19.7539 20.4893 19.6805 20.5283 19.6025C20.5811 19.4969 20.6171 19.353 20.6172 19.1406C20.6172 18.8199 20.5215 18.5997 20.3564 18.4346C20.1658 18.2442 19.6828 17.9503 18.9336 17.7178L18.9238 17.7148L18.915 17.7109C18.7042 17.6365 18.4437 17.5459 18.2471 17.4023C18.1375 17.3223 18.0309 17.216 17.9551 17.0713C17.8787 16.9255 17.8486 16.7698 17.8486 16.6152C17.8487 16.2473 17.9804 15.9232 18.2764 15.7207C18.3283 15.6852 18.3829 15.6572 18.4375 15.6328ZM17.5488 19.5771C17.5955 19.663 17.6531 19.7404 17.7285 19.8125L17.8154 19.8877L17.8291 19.8975L17.8408 19.9092C18.0102 20.0616 18.2521 20.1708 18.6748 20.2178L18.7812 20.2295C18.3408 20.1371 17.9751 19.8652 17.7734 19.5205L17.5488 19.5771ZM19.4834 15.6152C19.6285 15.6789 19.7582 15.7655 19.8594 15.8525C19.9301 15.9134 20.0083 15.994 20.0791 16.0898L20.2959 16.04C20.2551 15.9903 20.2081 15.94 20.1533 15.8926C19.9944 15.7656 19.7775 15.6691 19.4834 15.6152Z" fill="#666666" stroke="white"/>
</g>
</svg>
