<svg width="26" height="26" viewBox="0 0 26 26" fill="none" xmlns="http://www.w3.org/2000/svg">
<g id="Group 427322682">
<path id="Vector" d="M19.1111 2C20.4077 2 21.6512 2.51508 22.5681 3.43192C23.4849 4.34877 24 5.59227 24 6.88889V19.1111C24 20.4077 23.4849 21.6512 22.5681 22.5681C21.6512 23.4849 20.4077 24 19.1111 24H6.88889C5.59228 24 4.34877 23.4849 3.43192 22.5681C2.51508 21.6512 2 20.4077 2 19.1111V6.88889C2 5.59227 2.51508 4.34877 3.43192 3.43192C4.34877 2.51508 5.59228 2 6.88889 2H19.1111ZM8.11111 5.66667C7.4628 5.66667 6.84105 5.92421 6.38263 6.38263C5.9242 6.84105 5.66667 7.4628 5.66667 8.11111C5.66667 8.75942 5.9242 9.38117 6.38263 9.83959C6.84105 10.298 7.4628 10.5556 8.11111 10.5556C8.75942 10.5556 9.38117 10.298 9.83959 9.83959C10.298 9.38117 10.5556 8.75942 10.5556 8.11111C10.5556 7.4628 10.298 6.84105 9.83959 6.38263C9.38117 5.92421 8.75942 5.66667 8.11111 5.66667ZM17.2778 11.7778C16.5664 11.779 15.486 12.8863 14.4532 14.7967C14.0426 15.5508 13.6747 16.3831 13.3447 17.202C13.1467 17.6909 12.9939 18.0649 12.9254 18.2702C12.5906 19.2688 11.2376 19.4106 10.7096 18.5C10.657 18.4096 10.5604 18.236 10.404 18.0038C10.14 17.6127 9.83811 17.2167 9.524 16.8573C8.73933 15.9578 7.98156 15.4444 7.50122 15.4444C7.01233 15.4567 6.26067 15.97 5.47722 16.8573C5.15944 17.2179 4.86611 17.6127 4.59722 18.0038C4.51289 18.126 4.50067 18.1834 4.44444 18.2702V19.1111C4.44444 19.4321 4.50767 19.75 4.63052 20.0466C4.75336 20.3431 4.93342 20.6126 5.16041 20.8396C5.38739 21.0666 5.65687 21.2466 5.95344 21.3695C6.25001 21.4923 6.56788 21.5556 6.88889 21.5556H19.1111C19.4321 21.5556 19.75 21.4923 20.0466 21.3695C20.3431 21.2466 20.6126 21.0666 20.8396 20.8396C21.0666 20.6126 21.2466 20.3431 21.3695 20.0466C21.4923 19.75 21.5556 19.4321 21.5556 19.1111V18.0796C21.4786 17.862 21.3759 17.6041 21.2133 17.202C20.8784 16.3831 20.5167 15.552 20.1036 14.7954C19.061 12.8827 17.9891 11.7766 17.2778 11.7778Z" fill="#666666"/>
</g>
</svg>
