<svg width="32" height="32" viewBox="0 0 32 32" fill="none" xmlns="http://www.w3.org/2000/svg">
<g id="Group 427322867">
<g id="Frame" clip-path="url(#clip0_1413_10697)">
<circle id="Ellipse 3614" cx="16" cy="16" r="16" fill="black" fill-opacity="0.1"/>
<path id="Vector" d="M16 0C7.2 0 0 7.2 0 16C0 24.8 7.2 32 16 32C24.8 32 32 24.8 32 16C32 7.2 24.8 0 16 0ZM16 30.6667C7.93333 30.6667 1.33333 24.0667 1.33333 16C1.33333 7.93333 7.93333 1.33333 16 1.33333C24.0667 1.33333 30.6667 7.93333 30.6667 16C30.6667 24.0667 24.0667 30.6667 16 30.6667Z" fill="white"/>
<path id="Vector_2" d="M21.0007 13.7997L15.6673 10.2664C13.8673 9.06639 12.334 9.86639 12.334 12.0664V20.0664C12.334 22.2664 13.8007 23.0664 15.6673 21.8664L21.0007 18.3331C22.8007 16.9997 22.8007 14.9997 21.0007 13.7997Z" fill="white"/>
</g>
</g>
<defs>
<clipPath id="clip0_1413_10697">
<rect width="32" height="32" fill="white"/>
</clipPath>
</defs>
</svg>
