<svg width="26" height="26" viewBox="0 0 26 26" fill="none" xmlns="http://www.w3.org/2000/svg">
<path id="Vector" d="M13 0C20.1798 0 26 5.82017 26 13C26 20.1798 20.1798 26 13 26C5.82017 26 0 20.1798 0 13C0 5.82017 5.82017 0 13 0ZM11.1876 8.41177C10.4994 8.41177 9.94119 8.96999 9.94119 9.65823V16.2179C9.94133 16.4416 10.0017 16.6611 10.1158 16.8534C10.23 17.0457 10.3938 17.2038 10.5901 17.311C10.7864 17.4182 11.008 17.4707 11.2315 17.4628C11.455 17.4549 11.6723 17.3871 11.8606 17.2663L17.0155 13.9544C17.1918 13.841 17.3368 13.685 17.4368 13.5007C17.5369 13.3165 17.5889 13.11 17.588 12.9004C17.587 12.6907 17.5333 12.4847 17.4316 12.3013C17.3299 12.118 17.1836 11.9632 17.0063 11.8514L11.8514 8.60372C11.6525 8.47834 11.4221 8.41179 11.1869 8.41177H11.1876Z" fill="#4C72F6"/>
</svg>
