<svg width="16" height="16" viewBox="0 0 16 16" fill="none" xmlns="http://www.w3.org/2000/svg">
<g id="Group 427322872">
<g id="Frame">
<path id="Vector" d="M10.9675 3.50621C11.0797 3.3608 11.1308 3.17739 11.1099 2.99492C11.0891 2.81244 10.9979 2.64528 10.8559 2.52891C10.7138 2.41254 10.5319 2.35614 10.3489 2.37167C10.1659 2.3872 9.99617 2.47345 9.87572 2.6121L3.39007 10.5274L1.16137 8.63845C1.01824 8.52019 0.834296 8.46308 0.649366 8.47949C0.464436 8.49589 0.293414 8.58449 0.173347 8.7261C0.0532792 8.86771 -0.00616669 9.05091 0.00788585 9.23604C0.0219384 9.42116 0.108358 9.59329 0.248425 9.71515L3.02489 12.0681C3.09637 12.1287 3.17919 12.1744 3.26852 12.2026C3.35785 12.2308 3.45191 12.241 3.5452 12.2325C3.6385 12.224 3.72917 12.197 3.81193 12.1531C3.89469 12.1092 3.96788 12.0493 4.02725 11.9768L10.9675 3.50621ZM14.9148 3.72268C15.0198 3.5735 15.063 3.38945 15.0353 3.20912C15.0076 3.02879 14.9111 2.86619 14.7662 2.75542C14.6212 2.64465 14.439 2.59431 14.2577 2.61497C14.0764 2.63563 13.9102 2.72567 13.7938 2.86621L7.80984 10.6902L7.45501 10.3288C7.32371 10.1953 7.14474 10.1193 6.95747 10.1178C6.7702 10.1162 6.58997 10.189 6.45642 10.3203C6.32288 10.4516 6.24696 10.6306 6.24537 10.8179C6.24379 11.0051 6.31666 11.1854 6.44795 11.3189L7.37313 12.2601C7.44398 12.3321 7.52945 12.388 7.62378 12.4242C7.71811 12.4603 7.81909 12.4758 7.91991 12.4695C8.02073 12.4633 8.11903 12.4355 8.20818 12.388C8.29732 12.3405 8.37524 12.2744 8.43666 12.1942L14.9148 3.72363V3.72268Z" fill="#4C72F6"/>
</g>
</g>
</svg>
