<svg width="38" height="38" viewBox="0 0 38 38" fill="none" xmlns="http://www.w3.org/2000/svg">
<g id="&#229;&#155;&#190;&#230;&#160;&#135;/60/&#230;&#140;&#130;&#230;&#150;&#173;">
<circle id="Ellipse 1297" cx="19" cy="19" r="19" fill="#F44649"/>
<path id="Vector" d="M28.8065 17.3881C27.6664 16.0225 25.8521 15.1029 23.4108 14.6593C21.532 14.3173 19.8268 14.3569 19.1824 14.3743C19.1031 14.3767 19.0361 14.3767 19.0014 14.3767C18.9667 14.3767 18.8973 14.3743 18.8205 14.3743C18.1786 14.3594 16.4709 14.3173 14.5921 14.6593C12.1532 15.1029 10.3365 16.0225 9.19635 17.3881C8.15784 18.6323 7.86042 19.7799 7.92486 20.4392C7.96204 20.8159 8.11819 21.495 8.371 22.0948C8.76261 23.0242 9.2831 23.5373 9.9176 23.6216C9.987 23.6315 10.0614 23.6364 10.1382 23.6364C10.8917 23.6364 11.9079 23.2176 12.3367 23.0218C13.0753 22.6872 14.0097 22.1716 14.2724 21.6065C14.5376 21.0365 14.545 20.5879 14.55 20.2582C14.5549 19.998 14.5599 19.8964 14.6343 19.7724C14.6665 19.7402 15.011 19.4403 16.5774 19.1925C17.5763 19.0363 18.5925 18.9768 18.999 18.9768C19.4054 18.9768 20.4192 19.0363 21.4205 19.1925C22.9869 19.4378 23.329 19.7402 23.3637 19.7724C23.438 19.8964 23.443 19.9955 23.4479 20.2582C23.4529 20.5854 23.4603 21.034 23.7255 21.6065C23.9883 22.1716 24.9227 22.6896 25.6613 23.0218C26.0925 23.2151 27.1087 23.6364 27.8597 23.6364C27.9366 23.6364 28.0109 23.6315 28.0803 23.6216C28.7148 23.5373 29.2353 23.0242 29.6269 22.0948C29.8797 21.4925 30.0359 20.8134 30.0731 20.4392C30.1449 19.7799 29.845 18.6323 28.8065 17.3881Z" fill="white"/>
</g>
</svg>
