<svg width="24" height="24" viewBox="0 0 24 24" fill="none" xmlns="http://www.w3.org/2000/svg">
<g id="Group 427321196">
<g id="Group 427321194">
<g id="Frame" clip-path="url(#clip0_363_6415)">
<path id="Vector" d="M17.3106 2.64353C17.8471 2.10698 18.5749 1.80554 19.3337 1.80554C20.0925 1.80554 20.8202 2.10698 21.3567 2.64353C21.8933 3.18009 22.1947 3.90781 22.1947 4.66661C22.1947 5.42542 21.8933 6.15314 21.3567 6.6897L12.5907 15.4558L12.5366 15.5099C12.2735 15.7739 12.0416 16.0067 11.7611 16.1781C11.5151 16.3291 11.2469 16.4405 10.9663 16.5081C10.6473 16.5842 10.3182 16.5833 9.94516 16.5833H8.33366C8.09054 16.5833 7.85739 16.4867 7.68548 16.3148C7.51357 16.1429 7.41699 15.9097 7.41699 15.6666V14.1312V14.0551C7.41699 13.682 7.41699 13.3529 7.49308 13.0339C7.56069 12.7534 7.67205 12.4852 7.82308 12.2392C7.99358 11.9587 8.22641 11.7259 8.49041 11.4637L8.54541 11.4087L17.3106 2.64353ZM20.0606 3.9397C19.9651 3.84419 19.8518 3.76842 19.7271 3.71672C19.6024 3.66503 19.4687 3.63842 19.3337 3.63842C19.1986 3.63842 19.0649 3.66503 18.9402 3.71672C18.8155 3.76842 18.7022 3.84419 18.6067 3.9397L9.84066 12.7058C9.49233 13.0541 9.42816 13.1265 9.38508 13.1971C9.33473 13.2791 9.29761 13.3685 9.27508 13.462C9.25674 13.5427 9.25033 13.6399 9.25033 14.1312V14.7499H9.86908C10.3604 14.7499 10.4576 14.7444 10.5382 14.7243C10.6321 14.7019 10.7218 14.6647 10.8041 14.6143C10.8737 14.5712 10.9471 14.507 11.2945 14.1596L20.0606 5.39353C20.1561 5.2981 20.2319 5.18478 20.2836 5.06005C20.3352 4.93532 20.3619 4.80163 20.3619 4.66661C20.3619 4.5316 20.3352 4.3979 20.2836 4.27318C20.2319 4.14845 20.1561 4.03513 20.0606 3.9397Z" fill="#757575"/>
<path id="Vector_2" d="M7.19607 3.75H11.0837C11.204 3.74998 11.3233 3.77368 11.4345 3.81974C11.5457 3.8658 11.6468 3.93331 11.7319 4.01844C11.8171 4.10356 11.8846 4.20462 11.9307 4.31584C11.9768 4.42707 12.0005 4.54628 12.0005 4.66667C12.0005 4.78706 11.9768 4.90627 11.9307 5.01749C11.8846 5.12872 11.8171 5.22978 11.7319 5.3149C11.6468 5.40002 11.5457 5.46754 11.4345 5.5136C11.3233 5.55965 11.204 5.58335 11.0837 5.58333H7.23366C6.44807 5.58333 5.91458 5.58333 5.50207 5.61817C5.10057 5.65025 4.89433 5.70983 4.75133 5.78317C4.40638 5.95893 4.12592 6.23938 3.95016 6.58433C3.87683 6.72733 3.81724 6.93267 3.78516 7.33508C3.75033 7.74758 3.75033 8.28108 3.75033 9.06667V16.7667C3.75033 17.5522 3.75033 18.0857 3.78516 18.4982C3.81724 18.8997 3.87683 19.106 3.95016 19.249C4.12592 19.5939 4.40638 19.8744 4.75133 20.0502C4.89433 20.1235 5.09966 20.1831 5.50207 20.2152C5.91458 20.25 6.44807 20.25 7.23366 20.25H14.9337C15.7192 20.25 16.2527 20.25 16.6652 20.2152C17.0667 20.1831 17.273 20.1235 17.416 20.0502C17.7609 19.8744 18.0414 19.5939 18.2172 19.249C18.2905 19.106 18.3501 18.9007 18.3822 18.4973C18.4161 18.0848 18.417 17.5522 18.417 16.7667V12.9167C18.417 12.7963 18.4407 12.6771 18.4867 12.5658C18.5328 12.4546 18.6003 12.3535 18.6854 12.2684C18.7705 12.1833 18.8716 12.1157 18.9828 12.0696C19.0941 12.0236 19.2133 11.9999 19.3337 11.9999C19.454 11.9999 19.5733 12.0236 19.6845 12.0696C19.7957 12.1157 19.8968 12.1833 19.9819 12.2684C20.067 12.3535 20.1345 12.4546 20.1806 12.5658C20.2266 12.6771 20.2503 12.7963 20.2503 12.9167V16.8042C20.2503 17.5422 20.2503 18.1517 20.21 18.6467C20.1678 19.1628 20.0771 19.6367 19.8507 20.0813C19.4991 20.7712 18.9382 21.3321 18.2483 21.6837C17.8037 21.9101 17.3298 22.0008 16.8147 22.043C16.3187 22.0833 15.7092 22.0833 14.9722 22.0833H7.19516C6.45724 22.0833 5.84766 22.0833 5.35266 22.043C4.83658 22.0008 4.36266 21.9101 3.91808 21.6837C3.22818 21.3321 2.66727 20.7712 2.31574 20.0813C2.08933 19.6367 1.99858 19.1628 1.95641 18.6477C1.91699 18.1508 1.91699 17.5422 1.91699 16.8052V9.02817C1.91699 8.29025 1.91699 7.68067 1.95733 7.18567C1.99949 6.66958 2.09024 6.19567 2.31666 5.75108C2.66819 5.06119 3.22909 4.50028 3.91899 4.14875C4.36357 3.92233 4.83749 3.83158 5.35266 3.78942C5.84949 3.75 6.45816 3.75 7.19516 3.75H7.19607Z" fill="#757575"/>
</g>
</g>
</g>
<defs>
<clipPath id="clip0_363_6415">
<rect width="22" height="22" fill="white" transform="translate(1 1)"/>
</clipPath>
</defs>
</svg>
