<svg width="18" height="18" viewBox="0 0 18 18" fill="none" xmlns="http://www.w3.org/2000/svg">
<g id="Group 427322825">
<g id="Group 427322824">
<g id="Frame" clip-path="url(#clip0_1107_11685)">
<path id="Vector" d="M9.0006 1.01172C4.58374 1.01172 1.00293 4.58767 1.00293 8.99896C1.00293 13.4103 4.58374 16.9863 9.0006 16.9863C13.4176 16.9863 16.9985 13.4103 16.9985 8.99896C16.9985 4.58767 13.4176 1.01172 9.0006 1.01172ZM9.0006 15.7882C5.24616 15.7882 2.20251 12.7484 2.20251 8.99898C2.20251 5.24931 5.24616 2.20974 9.0006 2.20974C12.755 2.20974 15.7987 5.24931 15.7987 8.99898C15.7986 12.7484 12.755 15.7882 9.0006 15.7882ZM9.40494 10.4645L9.62895 4.5266H8.15045L8.37465 10.4645H9.40494ZM8.86754 11.4038C8.37467 11.4038 7.9827 11.8063 7.9827 12.3094C7.9827 12.8015 8.35207 13.2265 8.86754 13.2265C9.35991 13.2265 9.76335 12.8238 9.76335 12.3094C9.76335 11.8063 9.35991 11.4038 8.86754 11.4038Z" fill="#666666"/>
</g>
</g>
</g>
<defs>
<clipPath id="clip0_1107_11685">
<rect width="16" height="16" fill="white" transform="translate(1 1)"/>
</clipPath>
</defs>
</svg>
