<svg width="30" height="30" viewBox="0 0 30 30" fill="none" xmlns="http://www.w3.org/2000/svg">
<g id="Group 427323178">
<rect id="Rectangle 34625612" width="30" height="30" rx="15" fill="black" fill-opacity="0.15"/>
<g id="Group 427322744">
<g id="Frame">
<path id="Vector" d="M11.541 12.5156H10.1348C9.72481 12.5156 9.39258 12.1834 9.39258 11.7734C9.39258 11.3635 9.72481 11.0312 10.1348 11.0312H11.541C11.951 11.0312 12.2832 11.3635 12.2832 11.7734C12.2832 12.1834 11.951 12.5156 11.541 12.5156Z" fill="white"/>
<path id="Vector_2" d="M20.6127 19.9082H9.00742C7.94687 19.9082 7.08398 19.0453 7.08398 17.9848V10.7906C7.08398 9.73008 7.94687 8.86719 9.00742 8.86719H20.6127C21.6732 8.86719 22.5361 9.73008 22.5361 10.7906V17.9848C22.5361 19.0455 21.6732 19.9082 20.6127 19.9082ZM9.00742 10.3516C8.76953 10.3516 8.56836 10.5525 8.56836 10.7906V17.9848C8.56836 18.2227 8.76934 18.4238 9.00742 18.4238H20.6127C20.8506 18.4238 21.0518 18.2229 21.0518 17.9848V10.7906C21.0518 10.5527 20.8508 10.3516 20.6127 10.3516H9.00742Z" fill="white"/>
<path id="Vector_3" d="M14.81 17.6416C13.2012 17.6416 11.8924 16.3328 11.8924 14.724C11.8924 13.1152 13.2012 11.8064 14.81 11.8064C16.4188 11.8064 17.7276 13.1152 17.7276 14.724C17.7274 16.3328 16.4186 17.6416 14.81 17.6416ZM14.81 13.291C14.0198 13.291 13.3768 13.934 13.3768 14.7242C13.3768 15.5145 14.0198 16.1574 14.81 16.1574C15.6002 16.1574 16.2432 15.5145 16.2432 14.7242C16.243 13.934 15.6002 13.291 14.81 13.291ZM19.3229 10.3502H10.2969C10.051 10.3502 9.82112 10.2283 9.68284 10.025C9.6148 9.92481 9.57232 9.80949 9.55911 9.68911C9.5459 9.56872 9.56237 9.44693 9.60706 9.33438L10.385 7.37422C10.3881 7.36621 10.3916 7.3582 10.3949 7.3502C10.6014 6.87871 11.0674 6.57422 11.5821 6.57422H18.0377C18.5524 6.57422 19.0184 6.87871 19.2248 7.3502C19.2283 7.3582 19.2317 7.36621 19.2348 7.37422L20.0127 9.33438C20.1033 9.56289 20.075 9.82168 19.9369 10.025C19.7989 10.2283 19.5688 10.3502 19.3229 10.3502ZM11.3899 8.86582H18.2299L17.9094 8.0584H11.7102L11.3899 8.86582Z" fill="white"/>
<path id="Vector_4" d="M12.3131 23.4246C11.4086 23.4246 10.3125 23.2542 9.31112 22.9492C8.21092 22.6142 6.71053 21.9644 5.80975 20.7722C4.98221 19.6773 4.84081 18.3544 5.40057 16.9466C5.55214 16.5658 5.98358 16.3798 6.36444 16.5312C6.7453 16.6828 6.93124 17.1142 6.77987 17.4951C6.4119 18.4203 6.48182 19.1996 6.99393 19.8771C8.09042 21.3281 10.8023 21.9394 12.3234 21.9394C12.4844 21.9394 12.6316 21.9326 12.7625 21.9191C13.1701 21.8773 13.5346 22.1742 13.5764 22.5818C13.6182 22.9896 13.3213 23.354 12.9137 23.3956C12.7264 23.4152 12.525 23.4246 12.3131 23.4246Z" fill="white"/>
<path id="Vector_5" d="M12.859 23.398C12.6457 23.398 12.434 23.3066 12.2873 23.1297C12.2425 23.0757 12.2055 23.0156 12.1776 22.9512C12.1569 22.9404 12.1367 22.9303 12.1186 22.9211C12.0637 22.8932 12.0073 22.8643 11.9506 22.834L11.9256 22.8221C11.8584 22.9919 11.7307 23.1308 11.5672 23.2121C11.2004 23.3951 10.7547 23.2463 10.5717 22.8795L10 21.7338C9.85862 21.4506 9.91253 21.109 10.134 20.8828C10.3555 20.6568 10.6961 20.5961 10.9821 20.7318L12.6035 21.501C12.6155 21.5066 12.6272 21.5125 12.6385 21.5187C12.685 21.5439 12.7369 21.5703 12.792 21.5984C13.143 21.7771 13.5797 21.9996 13.635 22.4963C13.6655 22.7713 13.5524 23.0445 13.3323 23.2271C13.1994 23.3378 13.0319 23.3982 12.859 23.398Z" fill="white"/>
<path id="Vector_6" d="M17.2598 23.3999C16.8502 23.3999 16.518 23.0683 16.5176 22.6585C16.5172 22.2485 16.849 21.9159 17.259 21.9155C18.2598 21.9144 19.4365 21.7308 20.407 21.4245C21.6012 21.0476 22.4922 20.4991 22.984 19.8386C23.4787 19.1741 23.5809 18.3872 23.2963 17.4329C23.1791 17.0401 23.4027 16.6267 23.7955 16.5097C24.1883 16.3925 24.6018 16.6161 24.7188 17.0089C24.9334 17.7286 24.9898 18.4179 24.8863 19.0571C24.7887 19.6606 24.5492 20.2218 24.1746 20.7251C22.6059 22.8321 19.0904 23.398 17.2605 23.3999H17.2598Z" fill="white"/>
</g>
</g>
</g>
</svg>
