<svg width="34" height="13" viewBox="0 0 34 13" fill="none" xmlns="http://www.w3.org/2000/svg">
<path id="Vector 1376" d="M34 6.07143H30.4697C30.2752 6.07143 30.0985 5.95874 30.0164 5.78251L29.1925 4.0133C29.0005 3.6011 28.4026 3.63833 28.2633 4.07117L26.9209 8.2414C26.7797 8.67988 26.171 8.7104 25.9867 8.28824L25.1498 6.37137C25.0703 6.18919 24.8904 6.07143 24.6916 6.07143H20.6612C20.4527 6.07143 20.266 6.20087 20.1929 6.39619L19.6203 7.92633C19.4461 8.39197 18.7728 8.34554 18.6641 7.86039L17.2539 1.56511C17.1333 1.02664 16.3575 1.0518 16.272 1.59695L14.7714 11.1661C14.6846 11.7199 13.8921 11.7334 13.7864 11.1829L12.5496 4.73809C12.4526 4.23235 11.7467 4.18586 11.5842 4.67451L11.2333 5.72924C11.1654 5.93357 10.9742 6.07143 10.7589 6.07143H2.83122e-07" stroke="url(#paint0_linear_1084_7741)" stroke-width="1.3"/>
<defs>
<linearGradient id="paint0_linear_1084_7741" x1="2.03724e-07" y1="5.5" x2="34" y2="5.5" gradientUnits="userSpaceOnUse">
<stop stop-color="#FF6BB1"/>
<stop offset="1" stop-color="#FF6BB1" stop-opacity="0"/>
</linearGradient>
</defs>
</svg>
