<svg width="30" height="30" viewBox="0 0 30 30" fill="none" xmlns="http://www.w3.org/2000/svg">
<g id="Group 427323177">
<rect id="Rectangle 34625612" width="30" height="30" rx="15" fill="black" fill-opacity="0.15"/>
<g id="Group 427322738">
<g id="Frame">
<path id="Vector" d="M13.7507 15.4172C13.9645 15.4172 14.1701 15.4994 14.325 15.6468C14.4799 15.7941 14.5723 15.9954 14.5829 16.2089L14.584 16.2506V20.8339C14.584 21.0513 14.499 21.2601 14.3472 21.4158C14.1954 21.5714 13.9888 21.6616 13.7715 21.667C13.5542 21.6724 13.3433 21.5927 13.1839 21.4449C13.0245 21.297 12.9292 21.0927 12.9184 20.8756L12.9173 20.8339V18.3337L9.77753 21.4737C9.62387 21.6278 9.41604 21.7156 9.19846 21.7185C8.98088 21.7214 8.77081 21.639 8.61314 21.4891C8.45547 21.3391 8.36272 21.1334 8.3547 20.916C8.34668 20.6985 8.42404 20.4865 8.57023 20.3254L8.59898 20.2952L11.8102 17.0839H9.16732C8.95352 17.0839 8.7479 17.0017 8.59298 16.8544C8.43807 16.707 8.34572 16.5058 8.33503 16.2922L8.33398 16.2506C8.33398 16.0368 8.41616 15.8312 8.56351 15.6762C8.71086 15.5213 8.91212 15.429 9.12565 15.4183L9.16732 15.4172H13.7507ZM21.4023 8.57808C21.5535 8.72925 21.6408 8.93276 21.6462 9.1465C21.6515 9.36024 21.5745 9.56786 21.4311 9.72641L21.4023 9.75641L18.1911 12.9679H20.834C21.0478 12.9679 21.2534 13.05 21.4083 13.1974C21.5632 13.3447 21.6556 13.546 21.6663 13.7595L21.6673 13.8012C21.6673 14.015 21.5851 14.2206 21.4378 14.3755C21.2904 14.5305 21.0892 14.6228 20.8757 14.6335L20.834 14.6345H16.2507C16.0369 14.6345 15.8312 14.5524 15.6763 14.405C15.5214 14.2577 15.4291 14.0564 15.4184 13.8429L15.4173 13.8012V9.21787C15.4173 9.00046 15.5023 8.79166 15.6541 8.63602C15.8059 8.48038 16.0125 8.39022 16.2298 8.38478C16.4472 8.37935 16.658 8.45906 16.8174 8.60692C16.9768 8.75478 17.0721 8.95907 17.0829 9.1762L17.084 9.21787V11.7179L20.2238 8.57808C20.3012 8.50069 20.393 8.4393 20.4941 8.39742C20.5952 8.35554 20.7036 8.33398 20.813 8.33398C20.9225 8.33398 21.0309 8.35554 21.132 8.39742C21.2331 8.4393 21.3249 8.50069 21.4023 8.57808Z" fill="white"/>
</g>
</g>
</g>
</svg>
