<svg width="20" height="20" viewBox="0 0 20 20" fill="none" xmlns="http://www.w3.org/2000/svg">
<g id="Group 427322659">
<g id="Frame">
<path id="Vector" d="M17.9973 2.119C17.6085 1.70025 16.9973 1.54275 16.4135 1.4865C15.801 1.42775 15.066 1.4665 14.276 1.57025C12.691 1.77775 10.776 2.259 8.93478 2.8515C7.09353 3.444 5.29853 4.15775 3.95478 4.84025C3.28603 5.18025 2.70478 5.52525 2.28353 5.85525C2.08057 6.00861 1.8975 6.18665 1.73853 6.38525C1.60103 6.56525 1.45603 6.82275 1.45853 7.13025C1.46353 7.94025 2.01478 8.51275 2.60228 8.8965C3.20228 9.289 3.98353 9.584 4.75978 9.8165C5.54353 10.0502 6.36978 10.2315 7.07853 10.379L7.33228 10.4315C7.76103 10.519 7.97478 10.564 8.17728 10.504C8.37728 10.4427 8.53353 10.2877 8.84353 9.979L11.911 6.9115C12.0697 6.76853 12.2773 6.69192 12.4908 6.69749C12.7043 6.70305 12.9076 6.79036 13.0586 6.94141C13.2097 7.09245 13.297 7.2957 13.3025 7.50923C13.3081 7.72277 13.2315 7.93029 13.0885 8.089L10.2285 10.9502C9.91228 11.2665 9.75353 11.424 9.69478 11.629C9.63478 11.834 9.68228 12.0515 9.77978 12.4865C10.1535 14.174 10.4785 15.5677 10.8023 16.5065C10.9898 17.054 11.2035 17.529 11.4735 17.8777C11.7535 18.2427 12.136 18.519 12.6398 18.5402C12.9523 18.5552 13.2148 18.4115 13.3923 18.279C13.581 18.139 13.7585 17.9515 13.9223 17.7465C14.2523 17.334 14.5985 16.764 14.9435 16.104C15.6373 14.779 16.371 13.0027 16.9935 11.1752C17.6135 9.34775 18.131 7.44275 18.381 5.859C18.5048 5.069 18.566 4.33525 18.531 3.7215C18.4998 3.13775 18.376 2.5265 17.9973 2.119Z" fill="white"/>
</g>
</g>
</svg>
