<svg width="18" height="18" viewBox="0 0 18 18" fill="none" xmlns="http://www.w3.org/2000/svg">
<g id="Group 427322895">
<g id="Frame" clip-path="url(#clip0_1230_16555)">
<path id="Vector" d="M17.0366 12.3281C16.5761 13.3919 15.9534 14.3161 15.1685 15.1007C14.3839 15.8856 13.4627 16.5085 12.4056 16.9688C11.3482 17.4295 10.2163 17.6596 9.00981 17.6596C7.8036 17.6596 6.66847 17.4295 5.60445 16.9688C4.5407 16.5085 3.61651 15.8856 2.8319 15.1007C2.047 14.316 1.42404 13.3919 0.963819 12.3281C0.50306 11.2641 0.272949 10.129 0.272949 8.92276C0.272949 7.71625 0.50306 6.58433 0.963819 5.52699C1.42404 4.4699 2.047 3.54864 2.8319 2.76403C3.61651 1.97913 4.5407 1.35643 5.60445 0.895948C6.66847 0.435469 7.80359 0.205078 9.00981 0.205078C10.2163 0.205078 11.3482 0.435467 12.4056 0.895948C13.4627 1.35645 14.3839 1.97913 15.1685 2.76403C15.9534 3.54866 16.5761 4.46992 17.0366 5.52699C17.4971 6.58433 17.7275 7.71625 17.7275 8.92276C17.7275 10.129 17.4971 11.2641 17.0366 12.3281Z" fill="#FF2442"/>
<path id="Vector_2" d="M8.99984 12.4668C8.30256 12.4668 7.73779 13.0316 7.73779 13.7288C7.73779 14.4261 8.30256 14.9909 8.99984 14.9909C9.69713 14.9909 10.2619 14.4261 10.2619 13.7288C10.2619 13.0316 9.69713 12.4668 8.99984 12.4668Z" fill="white"/>
<path id="Vector_3" d="M8.99984 11.2441C8.65152 11.2441 8.36882 10.655 8.36882 9.92767L7.73779 4.0039C7.73779 3.27659 8.30256 2.6875 8.99984 2.6875C9.69713 2.6875 10.2619 3.27659 10.2619 4.0039L9.63087 9.92767C9.63087 10.655 9.34817 11.2441 8.99984 11.2441Z" fill="white"/>
</g>
</g>
<defs>
<clipPath id="clip0_1230_16555">
<rect width="18" height="18" fill="white"/>
</clipPath>
</defs>
</svg>
