<svg width="54" height="54" viewBox="0 0 54 54" fill="none" xmlns="http://www.w3.org/2000/svg">
<g id="Group 427322782">
<rect id="Rectangle 34625522" width="54" height="54" rx="12" fill="#F3F2F2"/>
<g id="Group 427322663">
<path id="Vector" d="M20.8889 16C19.5923 16 18.3488 16.5151 17.4319 17.4319C16.5151 18.3488 16 19.5923 16 20.8889V33.1111C16 34.4077 16.5151 35.6512 17.4319 36.5681C18.3488 37.4849 19.5923 38 20.8889 38H33.1111C34.4077 38 35.6512 37.4849 36.5681 36.5681C37.4849 35.6512 38 34.4077 38 33.1111V20.8889C38 19.5923 37.4849 18.3488 36.5681 17.4319C35.6512 16.5151 34.4077 16 33.1111 16H20.8889ZM31.8889 19.6667C32.5372 19.6667 33.159 19.9242 33.6174 20.3826C34.0758 20.8411 34.3333 21.4628 34.3333 22.1111C34.3333 22.7594 34.0758 23.3812 33.6174 23.8396C33.159 24.298 32.5372 24.5556 31.8889 24.5556C31.2406 24.5556 30.6188 24.298 30.1604 23.8396C29.702 23.3812 29.4444 22.7594 29.4444 22.1111C29.4444 21.4628 29.702 20.8411 30.1604 20.3826C30.6188 19.9242 31.2406 19.6667 31.8889 19.6667ZM22.7222 25.7778C23.4336 25.779 24.514 26.8863 25.5468 28.7967C25.9574 29.5508 26.3253 30.3831 26.6553 31.202C26.8533 31.6909 27.0061 32.0649 27.0746 32.2702C27.4094 33.2688 28.7624 33.4106 29.2904 32.5C29.343 32.4096 29.4396 32.236 29.596 32.0038C29.86 31.6127 30.1619 31.2167 30.476 30.8573C31.2607 29.9578 32.0184 29.4444 32.4988 29.4444C32.9877 29.4567 33.7393 29.97 34.5228 30.8573C34.8406 31.2179 35.1339 31.6127 35.4028 32.0038C35.4871 32.126 35.4993 32.1834 35.5556 32.2702V33.1111C35.5556 33.4321 35.4923 33.75 35.3695 34.0466C35.2466 34.3431 35.0666 34.6126 34.8396 34.8396C34.6126 35.0666 34.3431 35.2466 34.0466 35.3695C33.75 35.4923 33.4321 35.5556 33.1111 35.5556H20.8889C20.5679 35.5556 20.25 35.4923 19.9534 35.3695C19.6569 35.2466 19.3874 35.0666 19.1604 34.8396C18.9334 34.6126 18.7534 34.3431 18.6305 34.0466C18.5077 33.75 18.4444 33.4321 18.4444 33.1111V32.0796C18.5214 31.862 18.6241 31.6041 18.7867 31.202C19.1216 30.3831 19.4833 29.552 19.8964 28.7954C20.939 26.8827 22.0109 25.7766 22.7222 25.7778Z" fill="#333333"/>
</g>
</g>
</svg>
