<svg width="68" height="68" viewBox="0 0 68 68" fill="none" xmlns="http://www.w3.org/2000/svg">
<g id="Group 427322803">
<rect id="Rectangle 34625522" width="68" height="68" rx="34" fill="#F3F2F2"/>
<g id="Group 427322659">
<g id="Frame">
<path id="Vector" d="M45.1963 22.967C44.652 22.3807 43.7963 22.1602 42.979 22.0815C42.1215 21.9992 41.0925 22.0535 39.9865 22.1987C37.7675 22.4892 35.0865 23.163 32.5088 23.9925C29.931 24.822 27.418 25.8212 25.5368 26.7767C24.6005 27.2527 23.7868 27.7357 23.197 28.1977C22.9129 28.4125 22.6566 28.6617 22.434 28.9397C22.2415 29.1917 22.0385 29.5522 22.042 29.9827C22.049 31.1167 22.8208 31.9182 23.6433 32.4555C24.4833 33.005 25.577 33.418 26.6638 33.7435C27.761 34.0707 28.9178 34.3245 29.91 34.531L30.2653 34.6045C30.8655 34.727 31.1648 34.79 31.4483 34.706C31.7283 34.6202 31.947 34.4032 32.381 33.971L36.6755 29.6765C36.8977 29.4763 37.1883 29.3691 37.4872 29.3769C37.7862 29.3847 38.0707 29.5069 38.2822 29.7184C38.4936 29.9298 38.6159 30.2144 38.6236 30.5133C38.6314 30.8123 38.5242 31.1028 38.324 31.325L34.32 35.3307C33.8773 35.7735 33.655 35.994 33.5728 36.281C33.4888 36.568 33.5553 36.8725 33.6918 37.4815C34.215 39.844 34.67 41.7952 35.1233 43.1095C35.3858 43.876 35.685 44.541 36.063 45.0292C36.455 45.5402 36.9905 45.927 37.6958 45.9567C38.1333 45.9777 38.5008 45.7765 38.7493 45.591C39.0135 45.395 39.262 45.1325 39.4913 44.8455C39.9533 44.268 40.438 43.47 40.921 42.546C41.8923 40.691 42.9195 38.2042 43.791 35.6457C44.659 33.0872 45.3835 30.4202 45.7335 28.203C45.9068 27.097 45.9925 26.0697 45.9435 25.2105C45.8998 24.3932 45.7265 23.5375 45.1963 22.967Z" fill="#666666"/>
</g>
</g>
</g>
</svg>
