<svg width="32" height="32" viewBox="0 0 32 32" fill="none" xmlns="http://www.w3.org/2000/svg">
<g id="Group 35222">
<g id="Group 35212">
<path id="Rectangle 4055" d="M4.18891 7.66859C3.91091 7.39102 3.90978 6.93989 4.1864 6.66094C4.46301 6.38199 4.91261 6.38087 5.19061 6.65843L23.9605 25.3987C24.2385 25.6763 24.2396 26.1274 23.963 26.4064C23.6864 26.6853 23.2368 26.6864 22.9588 26.4089L4.18891 7.66859Z" fill="#C7C7CA"/>
<path id="Subtract" d="M4.82715 10.3408L19.4941 25.0586C19.1217 25.1594 18.7304 25.2148 18.3262 25.2148H8.44531C5.98046 25.2147 3.9825 23.2159 3.98242 20.751V12.7842C3.98251 11.85 4.2691 10.9825 4.75977 10.2656C4.78129 10.2912 4.80315 10.3167 4.82715 10.3408ZM18.3262 8.32031C20.7909 8.32054 22.7898 10.3195 22.79 12.7842V20.751C22.79 21.9225 22.3371 22.9878 21.5986 23.7842L6.59082 8.72363C7.15561 8.46512 7.7836 8.32036 8.44531 8.32031H18.3262ZM26.4111 10.5107C27.1957 9.9246 28.3139 10.4845 28.3145 11.4639V22.5674C28.3141 23.4403 27.4046 24.0162 26.6152 23.6436L23.9688 22.3926C23.5526 22.1959 23.2872 21.7767 23.2871 21.3164V13.4443C23.2872 13.0693 23.4643 12.7158 23.7646 12.4912L26.4111 10.5107Z" fill="#C7C7CA"/>
</g>
</g>
</svg>
