<svg width="60" height="60" viewBox="0 0 60 60" fill="none" xmlns="http://www.w3.org/2000/svg">
<g id="&#229;&#155;&#190;&#230;&#160;&#135;/60/&#230;&#137;&#172;&#229;&#163;&#176;&#229;&#153;&#168;/&#229;&#183;&#178;&#229;&#188;&#128;">
<circle id="Ellipse 1298" cx="30" cy="30" r="30" fill="black" fill-opacity="0.15"/>
<g id="Group 35093">
<path id="Vector" d="M38.3891 38.3246C38.1829 38.4793 37.9424 38.5566 37.6674 38.5566C37.3238 38.5566 37.0274 38.432 36.7782 38.1829C36.5291 37.9337 36.4045 37.6373 36.4045 37.2936C36.4045 36.9156 36.5506 36.5977 36.8427 36.34C36.8598 36.3228 36.877 36.3099 36.8942 36.3013C36.9114 36.2928 36.9286 36.2799 36.9458 36.2627L36.9715 36.2369C37.4527 35.9104 37.8994 35.5238 38.3118 35.0771C38.7242 34.6303 39.085 34.1449 39.3943 33.6208C39.7036 33.0968 39.9442 32.5383 40.116 31.9455C40.2878 31.3527 40.3737 30.7384 40.3737 30.1027C40.3737 28.814 40.0473 27.6369 39.3943 26.5716C38.7414 25.5063 37.9252 24.63 36.9458 23.9427C36.5849 23.6849 36.4045 23.3413 36.4045 22.9117C36.4045 22.568 36.5291 22.2716 36.7782 22.0225C37.0274 21.7733 37.3238 21.6488 37.6674 21.6488C37.9595 21.6488 38.2173 21.7433 38.4407 21.9323C39.0764 22.379 39.6692 22.8988 40.2191 23.4916C40.7689 24.0844 41.2415 24.7288 41.6367 25.4247C42.0319 26.1206 42.3412 26.8637 42.5645 27.6541C42.7879 28.4445 42.8996 29.2607 42.8996 30.1027C42.8996 30.9618 42.7879 31.7866 42.5645 32.577C42.3412 33.3674 42.0276 34.1148 41.6238 34.8193C41.22 35.5238 40.7432 36.1725 40.1933 36.7653C39.6435 37.3581 39.0421 37.8779 38.3891 38.3246ZM36.9458 26.752C37.3066 27.2503 37.5944 27.7529 37.8092 28.2598C38.024 28.7667 38.1314 29.381 38.1314 30.1027C38.1314 30.79 38.0197 31.4086 37.7963 31.9584C37.5729 32.5083 37.2894 33.0066 36.9458 33.4533C36.8083 33.6423 36.6622 33.8098 36.5076 33.9559C36.353 34.102 36.1554 34.175 35.9148 34.175C35.6055 34.175 35.3435 34.0633 35.1287 33.8399C34.9139 33.6165 34.8065 33.3502 34.8065 33.0409C34.8065 32.9035 34.8323 32.766 34.8838 32.6285H34.8581C34.944 32.4395 35.0471 32.2591 35.1673 32.0873C35.2876 31.9155 35.4036 31.7393 35.5153 31.5589C35.627 31.3785 35.7215 31.1723 35.7988 30.9403C35.8761 30.7084 35.9148 30.4291 35.9148 30.1027C35.9148 29.7934 35.8761 29.5228 35.7988 29.2908C35.7215 29.0588 35.627 28.8483 35.5153 28.6593C35.4036 28.4703 35.2876 28.2899 35.1673 28.1181C35.0471 27.9462 34.9526 27.7658 34.8838 27.5768C34.8323 27.4565 34.8065 27.3191 34.8065 27.1644C34.8065 26.8551 34.9139 26.5888 35.1287 26.3654C35.3435 26.142 35.6055 26.0304 35.9148 26.0304C36.1554 26.0304 36.353 26.1034 36.5076 26.2494C36.6622 26.3955 36.8083 26.563 36.9458 26.752ZM28.6207 42.0619C27.7444 41.2715 26.8165 40.4467 25.8371 39.5875C24.8577 38.7284 23.947 37.938 23.105 37.2163C22.1256 36.3916 21.1462 35.5754 20.1667 34.7678C19.9777 34.785 19.7887 34.7936 19.5997 34.7936C19.4451 34.8107 19.2818 34.8193 19.11 34.8193H18.6718C18.2079 34.8193 17.8299 34.6776 17.5378 34.3941C17.2457 34.1105 17.0996 33.7712 17.0996 33.376V26.8809H17.1254L17.0996 26.8551C17.0996 26.374 17.25 25.9788 17.5507 25.6695C17.8514 25.3602 18.2251 25.2056 18.6718 25.2056H20.141C21.7218 23.8653 23.1566 22.6625 24.4453 21.5972C24.9951 21.1333 25.5364 20.6822 26.069 20.2441C26.6017 19.8059 27.0828 19.4064 27.5124 19.0456C27.942 18.6847 28.3028 18.384 28.5949 18.1435C28.887 17.9029 29.0674 17.7569 29.1362 17.7053C29.6517 17.3273 30.0683 17.1555 30.3862 17.1898C30.7041 17.2242 30.9533 17.3789 31.1337 17.6538C31.3141 17.9287 31.4387 18.2638 31.5074 18.659C31.5761 19.0542 31.6105 19.415 31.6105 19.7415V40.5412V40.6185C31.6105 40.945 31.5504 41.2929 31.4301 41.6624C31.3098 42.0318 31.1251 42.3239 30.8759 42.5387C30.6268 42.7535 30.3132 42.8437 29.9352 42.8093C29.5572 42.7749 29.119 42.5258 28.6207 42.0619Z" fill="white"/>
</g>
</g>
</svg>
