<svg width="60" height="60" viewBox="0 0 60 60" fill="none" xmlns="http://www.w3.org/2000/svg">
<g id="&#229;&#155;&#190;&#230;&#160;&#135;/60/&#230;&#137;&#172;&#229;&#163;&#176;&#229;&#153;&#168;/&#229;&#133;&#179;&#233;&#151;&#173;">
<circle id="Ellipse 1298" cx="30" cy="30" r="30" fill="black" fill-opacity="0.15"/>
<g id="Group 35221">
<g id="Group 35214">
<path id="Subtract" d="M31.1973 36.0714V39.4962C31.1973 39.7984 31.1413 40.1209 31.0303 40.463C30.9193 40.8049 30.7493 41.0756 30.5195 41.2745C30.2897 41.4733 30 41.5562 29.6514 41.5245C29.3026 41.4927 28.8981 41.2624 28.4385 40.8331C27.63 40.1013 26.7737 39.3374 25.8701 38.5421C24.9664 37.7466 24.1255 37.0149 23.3486 36.3467C22.4449 35.5831 21.5414 34.8269 20.6377 34.0792C20.4633 34.0951 20.2887 34.1036 20.1143 34.1036C19.9718 34.1195 19.8214 34.127 19.6631 34.127H19.2588C18.8307 34.127 18.4814 33.996 18.2119 33.7335C17.9424 33.471 17.8077 33.1569 17.8076 32.7911V26.7774H17.8311L17.8076 26.754C17.8076 26.3085 17.9462 25.9417 18.2236 25.6553C18.5011 25.3691 18.8466 25.2266 19.2588 25.2266H20.3896L31.1973 36.0714ZM36.7861 21.9327C37.0554 21.9328 37.2931 22.0206 37.499 22.1954C38.0856 22.609 38.6323 23.0909 39.1396 23.6397C39.6469 24.1885 40.0836 24.7845 40.4482 25.4288C40.8129 26.0731 41.0986 26.7614 41.3047 27.4932C41.5107 28.2249 41.6132 28.9805 41.6133 29.7598C41.6133 30.5551 41.5107 31.3192 41.3047 32.0508C41.0986 32.7825 40.809 33.4748 40.4365 34.127C40.0639 34.7793 39.6235 35.3799 39.1162 35.9288C38.6089 36.4776 38.0536 36.9595 37.4512 37.3731C37.2611 37.516 37.0394 37.5869 36.7861 37.587C36.7129 37.587 36.6418 37.5797 36.5732 37.5674L35.6387 36.6299C35.6266 36.5616 35.6201 36.491 35.6201 36.418C35.6201 36.0681 35.755 35.7738 36.0244 35.5352C36.0403 35.5193 36.0564 35.507 36.0723 35.4991C36.0881 35.4911 36.1043 35.4798 36.1201 35.4639L36.1436 35.4395C36.5873 35.1374 36.9995 34.7797 37.3799 34.3663C37.7604 33.9527 38.0935 33.5028 38.3789 33.0176C38.6642 32.5325 38.8864 32.0156 39.0449 31.4669C39.2035 30.918 39.2832 30.3485 39.2832 29.7598C39.2831 28.5669 38.9813 27.4775 38.3789 26.4913C37.7765 25.505 37.0238 24.693 36.1201 24.0567C35.7872 23.8181 35.6202 23.5003 35.6201 23.1026C35.6201 22.7845 35.7351 22.51 35.9648 22.2794C36.1947 22.0487 36.469 21.9327 36.7861 21.9327ZM35.1689 25.9903C35.3907 25.9904 35.5732 26.0573 35.7158 26.1924C35.8585 26.3277 35.9933 26.4833 36.1201 26.6583C36.4529 27.1194 36.7179 27.5847 36.916 28.0538C37.1142 28.523 37.2138 29.0919 37.2139 29.7598C37.2139 30.3962 37.1104 30.9695 36.9043 31.4786C36.6982 31.9875 36.4371 32.4489 36.1201 32.8624C35.9933 33.0374 35.8585 33.193 35.7158 33.3282C35.5732 33.4633 35.3907 33.5302 35.1689 33.5303C34.8837 33.5303 34.6415 33.4274 34.4434 33.2208C34.2452 33.014 34.1455 32.7669 34.1455 32.4805C34.1455 32.3533 34.1693 32.2259 34.2168 32.0987H34.1934C34.2726 31.9238 34.3676 31.7567 34.4785 31.5977C34.5895 31.4386 34.6967 31.2755 34.7998 31.1085C34.9028 30.9415 34.9902 30.7508 35.0615 30.5362C35.1329 30.3214 35.1689 30.0621 35.1689 29.7598C35.1689 29.4738 35.1328 29.2235 35.0615 29.0089C34.9902 28.7941 34.9029 28.5989 34.7998 28.4239C34.6968 28.2489 34.5895 28.082 34.4785 27.9229C34.3676 27.7639 34.2802 27.5969 34.2168 27.4219C34.1693 27.3106 34.1455 27.1832 34.1455 27.0401C34.1455 26.7537 34.2452 26.5067 34.4434 26.2999C34.6415 26.0932 34.8837 25.9903 35.1689 25.9903ZM30.0674 17.8048C30.3606 17.8366 30.5904 17.9799 30.7568 18.2344C30.9233 18.489 31.0381 18.7992 31.1016 19.1651C31.165 19.5309 31.1973 19.8649 31.1973 20.1671V32.1729L22.5986 23.546C23.2981 22.9572 23.9609 22.4042 24.5859 21.8858C25.0933 21.4563 25.5925 21.0385 26.084 20.6329C26.5755 20.2272 27.0197 19.8566 27.416 19.5225C27.8121 19.1887 28.1447 18.9102 28.4141 18.6876C28.6836 18.4648 28.8506 18.33 28.9141 18.2823C29.3897 17.9323 29.7741 17.7729 30.0674 17.8048Z" fill="white" fill-opacity="0.65"/>
<path id="Rectangle 3968" d="M18.2401 21.2624C17.9549 20.9762 17.9549 20.5121 18.2401 20.2259C18.5253 19.9397 18.9878 19.9397 19.2731 20.2259L38.9579 39.9781C39.2432 40.2643 39.2432 40.7283 38.9579 41.0146C38.6727 41.3008 38.2102 41.3008 37.925 41.0146L18.2401 21.2624Z" fill="white" fill-opacity="0.65"/>
</g>
</g>
</g>
</svg>
