<svg width="22" height="22" viewBox="0 0 22 22" fill="none" xmlns="http://www.w3.org/2000/svg">
<path id="Vector" d="M11 0C17.0752 0 22 4.92476 22 11C22 17.0752 17.0752 22 11 22C4.92476 22 0 17.0752 0 11C0 4.92476 4.92476 0 11 0ZM9.46647 7.11765C8.88412 7.11765 8.41178 7.58999 8.41178 8.17235V13.7228C8.4119 13.9121 8.46294 14.0978 8.55955 14.2606C8.65617 14.4233 8.79479 14.5571 8.96088 14.6478C9.12698 14.7385 9.31442 14.7829 9.50356 14.7762C9.6927 14.7695 9.87657 14.7121 10.0359 14.6099L14.3977 11.8075C14.5469 11.7116 14.6696 11.5796 14.7542 11.4237C14.8389 11.2678 14.8829 11.0931 14.8821 10.9157C14.8813 10.7383 14.8358 10.5639 14.7498 10.4088C14.6638 10.2537 14.54 10.1227 14.3899 10.0281L10.0281 7.28007C9.85977 7.17398 9.66485 7.11767 9.46587 7.11765H9.46647Z" fill="#4C72F6"/>
</svg>
