<svg width="22" height="22" viewBox="0 0 22 22" fill="none" xmlns="http://www.w3.org/2000/svg">
<path id="Vector" d="M11 0C17.0751 0 22 4.92494 22 11C22 17.0751 17.0751 22 11 22C4.92494 22 0 17.0751 0 11C0 4.92494 4.92494 0 11 0ZM9.16667 7.63889C9.16667 7.13263 8.75626 6.72222 8.25 6.72222C7.74374 6.72222 7.33333 7.13263 7.33333 7.63889V14.3611C7.33333 14.8674 7.74374 15.2778 8.25 15.2778C8.75626 15.2778 9.16667 14.8674 9.16667 14.3611V7.63889ZM14.6667 7.63889C14.6667 7.13263 14.2563 6.72222 13.75 6.72222C13.2437 6.72222 12.8333 7.13263 12.8333 7.63889V14.3611C12.8333 14.8674 13.2437 15.2778 13.75 15.2778C14.2563 15.2778 14.6667 14.8674 14.6667 14.3611V7.63889Z" fill="#4C72F6"/>
</svg>
