<svg width="26" height="26" viewBox="0 0 26 26" fill="none" xmlns="http://www.w3.org/2000/svg">
<g id="Group 427321715">
<g id="Frame">
<path id="Vector" d="M10.912 3.25H9.67211C7.95124 3.25 6.55048 3.25 5.44548 3.39788C4.29173 3.55388 3.30048 3.887 2.51073 4.67837C1.72098 5.46812 1.38623 6.45938 1.23186 7.6115C1.08398 8.7165 1.08398 10.1172 1.08398 11.8381V14.1619C1.08398 15.8828 1.08398 17.2819 1.23186 18.3869C1.38623 19.5406 1.72098 20.5319 2.51073 21.3216C3.30211 22.1114 4.29336 22.4461 5.44548 22.6021C6.54886 22.75 7.94798 22.75 9.66886 22.75H10.9152C12.6345 22.75 14.0352 22.75 15.1386 22.6021C16.2924 22.4461 17.2836 22.1114 18.0717 21.3216C18.8371 20.5579 19.1751 19.604 19.336 18.4974C19.8332 18.8874 20.2817 19.2172 20.6864 19.461C21.4452 19.9192 22.4072 20.3044 23.3936 19.8153C24.3654 19.3326 24.666 18.3462 24.7911 17.4606C24.9162 16.5717 24.9162 15.3757 24.9162 13.9376V12.0607C24.9162 10.6226 24.9162 9.42825 24.7911 8.53775C24.666 7.65213 24.3654 6.66575 23.3936 6.18313C22.4072 5.69563 21.4452 6.07912 20.6864 6.53737C20.2181 6.83161 19.7677 7.15339 19.3376 7.501C19.3427 7.53781 19.3475 7.57464 19.3522 7.6115C19.1962 6.45775 18.8631 5.4665 18.0717 4.67837C17.282 3.887 16.2907 3.55388 15.1386 3.39788C14.0336 3.25 12.6329 3.25 10.912 3.25ZM19.4871 9.75975L19.4936 10.1628C20.532 9.308 21.2486 8.7295 21.8076 8.3915C22.1001 8.21275 22.2789 8.14938 22.3764 8.1315C22.3903 8.12838 22.4044 8.1262 22.4186 8.125H22.4284C22.4313 8.12611 22.4341 8.12777 22.4365 8.12987C22.4535 8.14947 22.4677 8.17135 22.4787 8.19488C22.5307 8.29725 22.5941 8.489 22.6445 8.84162C22.7452 9.55987 22.7485 10.6031 22.7485 12.1518V13.8466C22.7485 15.3952 22.7452 16.4385 22.6445 17.1567C22.5957 17.5094 22.5307 17.7011 22.4787 17.8035C22.4677 17.827 22.4535 17.8489 22.4365 17.8685L22.4349 17.8701L22.43 17.8734H22.4284H22.4186C22.4039 17.8728 22.3892 17.8711 22.3747 17.8685C22.1724 17.8131 21.9803 17.7253 21.806 17.6085C21.247 17.2689 20.5304 16.6904 19.492 15.8356C19.4985 15.3156 19.4985 14.7599 19.4985 14.1651V11.8349C19.4985 11.0825 19.4985 10.3919 19.4855 9.75975H19.4871ZM10.834 8.66613C10.834 8.06813 11.3182 7.58387 11.9162 7.58387H14.084C14.2297 7.57823 14.3751 7.60206 14.5115 7.65395C14.6478 7.70583 14.7723 7.7847 14.8774 7.88583C14.9825 7.98696 15.0661 8.10826 15.1233 8.24248C15.1804 8.3767 15.2098 8.52107 15.2098 8.66694C15.2098 8.81281 15.1804 8.95717 15.1233 9.09139C15.0661 9.22561 14.9825 9.34692 14.8774 9.44805C14.7723 9.54918 14.6478 9.62804 14.5115 9.67993C14.3751 9.73181 14.2297 9.75565 14.084 9.75H11.9162C11.6291 9.74957 11.3538 9.63519 11.1509 9.43197C10.948 9.22875 10.834 8.95331 10.834 8.66613Z" fill="#666666"/>
</g>
</g>
</svg>
