<svg width="20" height="20" viewBox="0 0 20 20" fill="none" xmlns="http://www.w3.org/2000/svg">
<g id="&#229;&#165;&#179;">
<rect id="Rectangle 34625035" width="20" height="20" rx="10" fill="#FFEBF9"/>
<g id="Mask group">
<mask id="mask0_1579_7311" style="mask-type:alpha" maskUnits="userSpaceOnUse" x="4" y="4" width="12" height="12">
<rect id="Rectangle 34625844" x="4" y="4" width="12" height="12" fill="#D9D9D9"/>
</mask>
<g mask="url(#mask0_1579_7311)">
<g id="Group 427322938">
<path id="Vector" d="M14.2862 5.64534C16.3084 7.66758 16.3084 10.9455 14.2862 12.9678C12.43 14.824 9.51668 14.9755 7.48652 13.4242L7.11571 13.795L8.06243 14.7417C8.17636 14.8557 8.24053 15.0101 8.24059 15.1713C8.24059 15.3324 8.17627 15.4868 8.06243 15.6008C7.9485 15.7147 7.79404 15.7789 7.63292 15.7789C7.47171 15.7789 7.3167 15.7154 7.20271 15.6015L6.25599 14.6547L5.45912 15.4516C5.34518 15.5655 5.19072 15.6297 5.0296 15.6298C4.86851 15.6298 4.71406 15.5655 4.60009 15.4516C4.48616 15.3377 4.42199 15.1832 4.42193 15.0221C4.42193 14.8609 4.48541 14.7059 4.5994 14.5919L5.39628 13.795L4.33009 12.7288C4.21611 12.6149 4.15263 12.4598 4.15263 12.2986C4.15269 12.1375 4.21685 11.9831 4.33078 11.8691C4.44475 11.7553 4.5992 11.691 4.7603 11.691C4.92141 11.691 5.07587 11.7552 5.18981 11.8691L6.25599 12.9353L6.61369 12.5776C4.95098 10.5437 5.06655 7.54258 6.96379 5.64534C8.98603 3.6231 12.264 3.6231 14.2862 5.64534ZM13.4272 6.50437C11.8797 4.95689 9.37029 4.95689 7.82281 6.50437C6.27534 8.05184 6.27534 10.5613 7.82281 12.1087C9.37029 13.6562 11.8797 13.6562 13.4272 12.1087C14.9747 10.5613 14.9747 8.05184 13.4272 6.50437Z" fill="#FF35B8" stroke="#FF35B8" stroke-width="0.2"/>
</g>
</g>
</g>
</g>
</svg>
