<?xml version="1.0" encoding="UTF-8"?>
<svg xmlns:xlink="http://www.w3.org/1999/xlink" width="24px" height="24px" viewBox="0 0 24 24" version="1.1"
     xmlns="http://www.w3.org/2000/svg">
    <title>切片</title>
    <g id="页面-1" stroke="none" stroke-width="1" fill="none" fill-rule="evenodd">
        <g id="录播课-课程详情-鼠标移入网页全屏" transform="translate(-384.000000, -789.000000)" fill="#FFFFFF">
            <g id="未标题-1备份" transform="translate(360.000000, 151.000000)">
                <g id="编组-2" transform="translate(0.000000, 616.000000)">
                    <g id="播放" transform="translate(24.000000, 22.000000)">
                        <rect id="矩形" opacity="0" x="0" y="0" width="24" height="24"></rect>
                        <g transform="translate(3.600000, 2.400000)" fill-rule="nonzero" id="路径">
                            <path d="M15.623696,8.5712362 L1.80612257,0.172277885 C1.43824708,-0.0511208326 0.979474673,-0.0576832474 0.605451583,0.155103136 C0.231428493,0.367889519 0,0.767063687 0,1.19979726 L0,17.9977139 C-0.00182768679,18.4313713 0.229264986,18.8321249 0.604112408,19.0453275 C0.978959829,19.2585301 1.43894703,19.2508433 1.80656926,19.0252333 L15.6241427,10.626275 C15.9815331,10.4090648 16.2,10.0192478 16.2,9.59875558 C16.2,9.17826338 15.9815331,8.78844634 15.6241427,8.5712362 L15.623696,8.5712362 Z"></path>
                        </g>
                    </g>
                </g>
            </g>
        </g>
    </g>
</svg>