<svg width="26" height="26" viewBox="0 0 26 26" fill="none" xmlns="http://www.w3.org/2000/svg">
<g id="Frame" clip-path="url(#clip0_1389_6471)">
<g id="Group 427320884">
<path id="Vector" d="M13.0146 1.74947C14.5348 1.74947 16.0115 2.04829 17.3982 2.63432C18.7386 3.20004 19.9425 4.01236 20.9782 5.04807C22.014 6.08377 22.8263 7.28774 23.392 8.62807C23.978 10.0148 24.2768 11.4886 24.2768 13.0117C24.2768 14.5348 23.978 16.0086 23.392 17.3953C22.8263 18.7356 22.014 19.9396 20.9782 20.9753C19.9425 22.011 18.7386 22.8233 17.3982 23.3891C16.0115 23.9751 14.5377 24.2739 13.0146 24.2739C11.4915 24.2739 10.0177 23.9751 8.631 23.3891C7.29067 22.8233 6.0867 22.011 5.051 20.9753C4.01529 19.9396 3.20297 18.7356 2.63725 17.3953C2.05122 16.0086 1.7524 14.5348 1.7524 13.0117C1.7524 11.4886 2.05122 10.0148 2.63725 8.62807C3.20297 7.28774 4.01529 6.08377 5.051 5.04807C6.0867 4.01236 7.29067 3.20004 8.631 2.63432C10.0177 2.04829 11.4944 1.74947 13.0146 1.74947ZM13.0146 0.00878906C5.8343 0.00878906 0.0117188 5.83137 0.0117188 13.0117C0.0117188 20.192 5.8314 26.0117 13.0117 26.0117C20.192 26.0117 26.0117 20.192 26.0117 13.0117C26.0117 5.83137 20.1949 0.00878906 13.0146 0.00878906Z" fill="white"/>
<path id="Vector_2" d="M17.668 7.45312C17.4449 7.45312 17.2218 7.53716 17.0537 7.70813L12.9968 11.765L8.93996 7.70813C8.76899 7.53716 8.54876 7.45312 8.32564 7.45312C8.10251 7.45312 7.87938 7.53716 7.71131 7.70813C7.37227 8.04717 7.37227 8.59774 7.71131 8.93678L11.7682 12.9936L7.71131 17.0505C7.37227 17.3896 7.37227 17.9401 7.71131 18.2792C7.88228 18.4501 8.10251 18.5342 8.32564 18.5342C8.54876 18.5342 8.77189 18.4501 8.93996 18.2792L12.9968 14.2223L17.0537 18.2792C17.2247 18.4501 17.4449 18.5342 17.668 18.5342C17.8911 18.5342 18.1143 18.4501 18.2823 18.2792C18.6214 17.9401 18.6214 17.3896 18.2823 17.0505L14.2255 12.9936L18.2823 8.93678C18.6214 8.59774 18.6214 8.04717 18.2823 7.70813C18.1143 7.54006 17.8911 7.45312 17.668 7.45312Z" fill="white"/>
</g>
</g>
<defs>
<clipPath id="clip0_1389_6471">
<rect width="26" height="26" fill="white"/>
</clipPath>
</defs>
</svg>
