<svg width="26" height="26" viewBox="0 0 26 26" fill="none" xmlns="http://www.w3.org/2000/svg">
<g id="Frame" clip-path="url(#clip0_1388_6464)">
<path id="Vector" d="M13 26C5.82029 26 0 20.1797 0 13C0 5.82029 5.82029 0 13 0C20.1797 0 26 5.82029 26 13C26 20.1797 20.1797 26 13 26ZM13 24.1429C19.1536 24.1429 24.1429 19.1536 24.1429 13C24.1429 6.84636 19.1536 1.85714 13 1.85714C6.84636 1.85714 1.85714 6.84636 1.85714 13C1.85714 19.1536 6.84636 24.1429 13 24.1429ZM10.374 16.3958L18.9085 7.86036C18.9946 7.7738 19.097 7.70511 19.2097 7.65824C19.3225 7.61137 19.4434 7.58725 19.5655 7.58725C19.6876 7.58725 19.8085 7.61137 19.9212 7.65824C20.0339 7.70511 20.1363 7.7738 20.2224 7.86036C20.3088 7.94646 20.3774 8.04877 20.4242 8.16143C20.471 8.27408 20.4951 8.39487 20.4951 8.51686C20.4951 8.63884 20.471 8.75963 20.4242 8.87229C20.3774 8.98495 20.3088 9.08726 20.2224 9.17336L11.0305 18.3653C10.8568 18.5393 10.6212 18.6372 10.3753 18.6375C10.1295 18.6379 9.89354 18.5406 9.71936 18.3671L5.77571 14.4235C5.68948 14.3374 5.62109 14.2352 5.57449 14.1226C5.52788 14.01 5.50398 13.8894 5.50416 13.7675C5.50433 13.6457 5.52857 13.5251 5.57549 13.4127C5.62241 13.3002 5.69109 13.1982 5.77757 13.1124C5.95174 12.9393 6.18721 12.842 6.43276 12.8416C6.67831 12.8413 6.91406 12.9379 7.08871 13.1105L10.374 16.3958Z" fill="white"/>
</g>
<defs>
<clipPath id="clip0_1388_6464">
<rect width="26" height="26" fill="white"/>
</clipPath>
</defs>
</svg>
